<svg width="19" height="18" viewBox="0 0 19 18" fill="none" xmlns="http://www.w3.org/2000/svg">
<path d="M17.0898 8.25V15H15.5898V12.75H3.58984V15H2.08984V3H3.58984V10.5H9.58984V5.25H14.0898C14.8854 5.25 15.6485 5.56607 16.2111 6.12868C16.7737 6.69129 17.0898 7.45435 17.0898 8.25ZM6.58984 9.75C5.9931 9.75 5.42081 9.51295 4.99885 9.09099C4.57689 8.66903 4.33984 8.09674 4.33984 7.5C4.33984 6.90326 4.57689 6.33097 4.99885 5.90901C5.42081 5.48705 5.9931 5.25 6.58984 5.25C7.18658 5.25 7.75887 5.48705 8.18083 5.90901C8.60279 6.33097 8.83984 6.90326 8.83984 7.5C8.83984 8.09674 8.60279 8.66903 8.18083 9.09099C7.75887 9.51295 7.18658 9.75 6.58984 9.75Z" fill="white"/>
</svg>
