<svg width="20" height="9" viewBox="0 0 20 9" fill="none" xmlns="http://www.w3.org/2000/svg">
<path d="M18.3956 8.5969C17.8961 8.5969 17.4903 8.1907 17.4903 7.6922C17.4903 7.6491 17.4556 7.6145 17.4128 7.6145C17.4054 7.6145 17.3982 7.6164 17.3921 7.6184C17.386 7.6164 17.3788 7.6145 17.3711 7.6145C17.3286 7.6145 17.294 7.6491 17.294 7.6922C17.294 8.1907 16.8884 8.5969 16.3889 8.5969C15.8898 8.5969 15.4839 8.1907 15.4839 7.6922C15.4839 7.6491 15.4489 7.6145 15.4061 7.6145C15.3987 7.6145 15.3916 7.6164 15.3854 7.6184C15.3793 7.6164 15.3728 7.6145 15.365 7.6145C15.3223 7.6145 15.2873 7.6491 15.2873 7.6922C15.2873 8.1888 14.883 8.595 14.3858 8.5963C13.8889 8.595 13.484 8.1888 13.484 7.6922C13.484 7.6491 13.4496 7.6145 13.4066 7.6145C13.3994 7.6145 13.3923 7.6164 13.3858 7.6184C13.38 7.6164 13.3732 7.6145 13.3654 7.6145C13.3224 7.6145 13.2877 7.6491 13.2877 7.6922C13.2877 8.1907 12.8818 8.5969 12.3827 8.5969C11.8838 8.5969 11.4776 8.1907 11.4776 7.6922C11.4776 7.6491 11.443 7.6145 11.4005 7.6145C11.3928 7.6145 11.3856 7.6164 11.3798 7.6184C11.3733 7.6164 11.3665 7.6145 11.3588 7.6145C11.316 7.6145 11.2813 7.6491 11.2813 7.6922C11.2813 8.1907 10.8751 8.5969 10.376 8.5969C9.87749 8.5969 9.47161 8.1907 9.47161 7.6922C9.47161 7.6491 9.43663 7.6145 9.39419 7.6145C9.3861 7.6145 9.37896 7.6164 9.37346 7.6184C9.36764 7.6164 9.36051 7.6145 9.35242 7.6145C9.30998 7.6145 9.27532 7.6491 9.27532 7.6922C9.27532 8.1888 8.87072 8.595 8.37352 8.5963C7.87663 8.595 7.47235 8.1888 7.47235 7.6922C7.47235 7.6491 7.43737 7.6145 7.39493 7.6145C7.38684 7.6145 7.37969 7.6164 7.37389 7.6184C7.36774 7.6164 7.36094 7.6145 7.35285 7.6145C7.31009 7.6145 7.27573 7.6491 7.27573 7.6922C7.27573 8.1907 6.86954 8.5969 6.37103 8.5969C5.87154 8.5969 5.46567 8.1907 5.46567 7.6922C5.46567 7.6491 5.43101 7.6145 5.38825 7.6145C5.38048 7.6145 5.37334 7.6158 5.36753 7.6184C5.36171 7.6164 5.35458 7.6145 5.34712 7.6145C5.30468 7.6145 5.26937 7.6491 5.26937 7.6922C5.26937 8.1907 4.86382 8.5969 4.36467 8.5969C3.8655 8.5969 3.45932 8.1907 3.45932 7.6922C3.45932 7.6491 3.42465 7.6145 3.38157 7.6145C3.37411 7.6145 3.36699 7.6158 3.36117 7.6184C3.35467 7.6164 3.34822 7.6145 3.34045 7.6145C3.29769 7.6145 3.26302 7.6491 3.26302 7.6922C3.26302 8.1888 2.85842 8.595 2.36185 8.5963C1.86425 8.595 1.45933 8.1888 1.45933 7.6922C1.45933 7.6491 1.42498 7.6145 1.38258 7.6145C1.37481 7.6145 1.36768 7.6164 1.36186 7.6184C1.35537 7.6164 1.34923 7.6145 1.34114 7.6145C1.29838 7.6145 1.26339 7.6491 1.26339 7.6922C1.26339 8.1907 0.857518 8.5969 0.358359 8.5969C0.315919 8.5969 0.28125 8.6316 0.28125 8.674C0.28125 8.7165 0.315919 8.7511 0.358359 8.7511C0.81476 8.7511 1.21772 8.4564 1.36217 8.033C1.50471 8.4512 1.90183 8.7453 2.35273 8.7511H2.37767C2.82566 8.743 3.21986 8.4486 3.36209 8.033C3.50622 8.4564 3.90917 8.7511 4.36557 8.7511C4.82134 8.7511 5.22398 8.4564 5.36907 8.033C5.51322 8.4564 5.91585 8.7511 6.37257 8.7511C6.82801 8.7511 7.23098 8.4564 7.37607 8.033C7.51893 8.4518 7.91768 8.7466 8.36952 8.7511H8.39089L8.39184 8.7505C8.83919 8.7424 9.23339 8.4486 9.37593 8.033C9.51975 8.4564 9.92208 8.7511 10.3781 8.7511C10.8345 8.7511 11.2375 8.4564 11.382 8.033C11.5264 8.4564 11.9294 8.7511 12.3855 8.7511C12.8415 8.7511 13.2442 8.4564 13.3886 8.033C13.5315 8.4499 13.927 8.7434 14.3763 8.7505L14.4051 8.7511C14.8525 8.743 15.2469 8.4486 15.3885 8.033C15.5333 8.4564 15.9362 8.7511 16.3923 8.7511C16.8487 8.7511 17.251 8.4564 17.3958 8.033C17.5403 8.4564 17.9432 8.7511 18.3996 8.7511C18.4421 8.7511 18.4761 8.7165 18.4761 8.674C18.4761 8.6316 18.438 8.5969 18.3956 8.5969Z" fill="#82BB5F"/>
<path d="M18.8498 4.2138L19.1407 3.49694L14.4694 3.46227L12.944 2.10794L12.934 2.09921H5.77986L3.86352 0.708286L3.02003 0.516846L4.6539 2.09921H3.25618V2.20545C3.25618 2.31492 3.35401 2.86237 5.29171 2.86237C5.42907 2.86237 5.56607 2.85978 5.71279 2.8546C5.73224 2.85265 5.75165 2.85201 5.77109 2.85201C6.43288 2.85201 6.99161 3.7833 6.99161 4.36798C6.99161 4.60831 6.89542 4.73045 6.70689 4.73045C6.68422 4.73045 6.66058 4.72914 6.62396 4.72495C6.62396 4.72495 5.43648 4.72041 4.3497 4.72041C3.30926 4.72041 2.72166 4.72464 2.60279 4.73241C1.97372 4.77453 1.42891 5.79874 1.0797 6.66234C0.95401 6.65164 0.706543 6.66684 0.340841 6.70934L0.311671 6.71904C0.112462 6.81784 0.135455 7.14114 0.149402 7.24804C0.139679 7.29724 0.148087 7.34814 0.174986 7.39474C0.249505 7.52754 0.471708 7.61754 0.662509 7.67234C0.56663 7.70704 0.463618 7.72544 0.355745 7.72544C0.313305 7.72544 0.278635 7.76014 0.278635 7.80254C0.278635 7.84564 0.313305 7.88034 0.355745 7.88034C0.812145 7.88034 1.21511 7.58494 1.35957 7.16214C1.5021 7.58004 1.89889 7.87414 2.3498 7.87994L2.35074 7.88064L2.37474 7.87994C2.82273 7.87194 3.21692 7.57804 3.35914 7.16244C3.50328 7.58524 3.90625 7.88064 4.36265 7.88064C4.81841 7.88064 5.22106 7.58524 5.36615 7.16184C5.51029 7.58524 5.91293 7.88064 6.36965 7.88064C6.82509 7.88064 7.22804 7.58524 7.37315 7.16184C7.51601 7.58134 7.91475 7.87604 8.3666 7.87994L8.38795 7.88064L8.38892 7.87994C8.83626 7.87194 9.23046 7.57804 9.373 7.16244C9.51682 7.58524 9.91914 7.88064 10.3752 7.88064C10.8316 7.88064 11.2346 7.58524 11.379 7.16184C11.5235 7.58524 11.9264 7.88064 12.3825 7.88064C12.8386 7.88064 13.2412 7.58524 13.3857 7.16184C13.5286 7.57874 13.9241 7.87284 14.3733 7.87994H14.4021C14.8494 7.87194 15.244 7.57804 15.3856 7.16184C15.5303 7.58524 15.9333 7.88064 16.3894 7.88064C16.8458 7.88064 17.2481 7.58524 17.3929 7.16184C17.5373 7.58524 17.9403 7.88064 18.3967 7.88064C18.4391 7.88064 18.4731 7.84594 18.4731 7.80284C18.4731 7.76044 18.4391 7.72574 18.3967 7.72574C17.8972 7.72574 17.4913 7.32024 17.4913 6.82104C17.4913 6.77794 17.4567 6.74334 17.4139 6.74334C17.4065 6.74334 17.3993 6.74524 17.3932 6.74784C17.3871 6.74524 17.3799 6.74334 17.3722 6.74334C17.3297 6.74334 17.295 6.77794 17.295 6.82104C17.295 7.32024 16.8895 7.72574 16.39 7.72574C16.1688 7.72574 15.9582 7.64544 15.7924 7.49874C16.8338 6.85024 19.143 5.32094 19.0757 4.54001C19.0626 4.4007 18.9871 4.29123 18.8498 4.2138ZM11.4517 3.81702L10.3232 3.80438L8.17041 2.65639H11.672L11.4517 3.81702ZM11.764 3.886L11.9761 2.65217H12.4815L13.9369 3.886H11.764ZM15.1363 4.09039L14.7195 3.714H15.2999L15.1363 4.09039ZM16.3812 4.08389H16.3543C16.1058 4.08389 15.7038 4.08584 15.3874 4.08907L15.5435 3.72791H16.5357L16.3812 4.08389ZM17.4248 4.10043C17.2185 4.09393 16.8855 4.09007 16.6309 4.08748L16.7922 3.714H17.5933L17.4248 4.10043ZM18.6302 4.172C18.4465 4.15419 18.0989 4.14024 17.8145 4.12828L17.6671 4.12179L17.8443 3.71365H18.7824L18.6302 4.172Z" fill="#82BB5F"/>
</svg>
