<svg xmlns="http://www.w3.org/2000/svg" width="25" height="25" viewBox="0 0 25 25" fill="none"><path d="M3.5 3.5H21.5C21.7652 3.5 22.0196 3.60536 22.2071 3.79289C22.3946 3.98043 22.5 4.23478 22.5 4.5V20.5C22.5 20.7652 22.3946 21.0196 22.2071 21.2071C22.0196 21.3946 21.7652 21.5 21.5 21.5H3.5C3.23478 21.5 2.98043 21.3946 2.79289 21.2071C2.60536 21.0196 2.5 20.7652 2.5 20.5V4.5C2.5 4.23478 2.60536 3.98043 2.79289 3.79289C2.98043 3.60536 3.23478 3.5 3.5 3.5ZM12.56 12.183L6.148 6.738L4.853 8.262L12.573 14.817L20.154 8.257L18.846 6.744L12.561 12.183H12.56Z" fill="#DBA77B"></path></svg>