<svg width="25" height="26" viewBox="0 0 25 26" fill="none" xmlns="http://www.w3.org/2000/svg">
<path d="M12.55 15V23H4.55005C4.55005 20.8783 5.3929 18.8434 6.8932 17.3431C8.39349 15.8429 10.4283 15 12.55 15ZM18.55 22.5L15.611 24.045L16.172 20.773L13.795 18.455L17.081 17.977L18.55 15L20.02 17.977L23.305 18.455L20.928 20.773L21.488 24.045L18.55 22.5ZM12.55 14C9.23505 14 6.55005 11.315 6.55005 8C6.55005 4.685 9.23505 2 12.55 2C15.865 2 18.55 4.685 18.55 8C18.55 11.315 15.865 14 12.55 14Z" fill="#DBA77B"/>
</svg>
