<svg width="25" height="26" viewBox="0 0 25 26" fill="none" xmlns="http://www.w3.org/2000/svg">
<path d="M12.55 5H17.95H19.75H21.425C21.494 5 21.55 5.05596 21.55 5.125V12.875C21.55 12.944 21.494 13 21.425 13H17.675C17.606 13 17.55 13.056 17.55 13.125V17.875C17.55 17.944 17.494 18 17.425 18H12.55M12.55 5H3.67505C3.60601 5 3.55005 5.05717 3.55005 5.1262C3.55005 8.55683 3.55005 10.2904 3.55005 13M12.55 5V7.54822C12.55 7.58138 12.5632 7.61317 12.5866 7.63661L14.8 9.85M12.55 18V13.125C12.55 13.056 12.494 13 12.425 13H8.95005M12.55 18V20.875C12.55 20.944 12.494 21 12.425 21H8.95005M3.55005 13C3.55005 15.7096 3.55005 17.4432 3.55005 20.8738C3.55005 20.9428 3.60601 21 3.67505 21H5.35005H7.15005M3.55005 13H5.29827C5.33143 13 5.36322 12.9868 5.38666 12.9634L7.15005 11.2" stroke="#DBA77B" stroke-width="2" stroke-linejoin="bevel"/>
</svg>
