<svg width="25" height="25" viewBox="0 0 25 25" fill="none" xmlns="http://www.w3.org/2000/svg">
<path d="M2.19922 13.5001H7.67622C7.84734 16.667 8.85677 19.7315 10.6012 22.3801C8.41615 22.0369 6.40642 20.9793 4.88624 19.3726C3.36606 17.7659 2.42114 15.7008 2.19922 13.5001ZM2.19922 11.5001C2.42114 9.29942 3.36606 7.23429 4.88624 5.62763C6.40642 4.02097 8.41615 2.96334 10.6012 2.62012C8.85677 5.26873 7.84734 8.33326 7.67622 11.5001H2.19922ZM22.0992 11.5001H16.6222C16.4511 8.33326 15.4416 5.26873 13.6972 2.62012C15.8822 2.96334 17.892 4.02097 19.4122 5.62763C20.9323 7.23429 21.8773 9.29942 22.0992 11.5001ZM22.0992 13.5001C21.8773 15.7008 20.9323 17.7659 19.4122 19.3726C17.892 20.9793 15.8822 22.0369 13.6972 22.3801C15.4416 19.7315 16.4511 16.667 16.6222 13.5001H22.0992ZM9.67922 13.5001H14.6192C14.4546 16.1996 13.6045 18.8126 12.1492 21.0921C10.6939 18.8126 9.84382 16.1996 9.67922 13.5001ZM9.67922 11.5001C9.84382 8.80063 10.6939 6.18768 12.1492 3.90812C13.6045 6.18768 14.4546 8.80063 14.6192 11.5001H9.67922Z" fill="white"/>
</svg>
