<svg width="20" height="20" viewBox="0 0 20 20" fill="none" xmlns="http://www.w3.org/2000/svg">
<mask id="mask0_1704_11755" style="mask-type:luminance" maskUnits="userSpaceOnUse" x="0" y="0" width="20" height="20">
<path d="M19.8105 0.134033H0.810547V19.134H19.8105V0.134033Z" fill="white"/>
</mask>
<g mask="url(#mask0_1704_11755)">
<path fill-rule="evenodd" clip-rule="evenodd" d="M10.3092 1.12231C10.6372 1.12231 10.9029 1.38815 10.9029 1.71606V2.53666L14.9101 4.54019C15.4915 4.83085 15.9871 5.07861 16.332 5.31932C16.6817 5.56342 17.0494 5.91783 17.0494 6.46606C17.0494 7.01429 16.6817 7.3687 16.332 7.6128C15.9871 7.85351 15.4915 8.10125 14.91 8.39195L10.9029 10.3955V11.4215C12.9053 11.4721 14.7273 11.7772 16.1032 12.2588C16.856 12.5223 17.5074 12.8496 17.9823 13.2425C18.4534 13.6324 18.8196 14.1484 18.8196 14.7785C18.8196 15.4086 18.4534 15.9247 17.9823 16.3145C17.5074 16.7074 16.856 17.0348 16.1032 17.2982C14.5924 17.827 12.5439 18.1431 10.3092 18.1431C8.07456 18.1431 6.02602 17.827 4.51517 17.2982C3.76249 17.0348 3.11105 16.7074 2.63618 16.3145C2.16509 15.9247 1.79883 15.4086 1.79883 14.7785C1.79883 14.1484 2.16509 13.6324 2.63618 13.2425C3.11105 12.8496 3.76249 12.5223 4.51517 12.2588C5.89115 11.7772 7.71312 11.4721 9.7155 11.4215V10.0457C9.71518 10.0346 9.71518 10.0234 9.7155 10.0124V2.91975C9.71518 2.90868 9.71518 2.89758 9.7155 2.88646V1.71606C9.7155 1.38815 9.98134 1.12231 10.3092 1.12231ZM10.9029 3.86431V9.06779L14.3362 7.35118C14.9723 7.03317 15.3877 6.82371 15.6523 6.63902C15.7776 6.55163 15.8315 6.4953 15.8535 6.46606C15.8315 6.43683 15.7776 6.38049 15.6523 6.29311C15.3877 6.10841 14.9723 5.89895 14.3362 5.58095L10.9029 3.86431ZM15.8671 6.49037C15.8671 6.49037 15.8646 6.48699 15.8632 6.4806C15.8671 6.48725 15.8671 6.49037 15.8671 6.49037ZM15.8632 6.45153C15.8646 6.44513 15.8671 6.44175 15.8671 6.44175C15.8671 6.44175 15.8671 6.44488 15.8632 6.45153ZM9.7155 12.6094C7.81916 12.6599 6.13515 12.95 4.90746 13.3797C4.22751 13.6176 3.71958 13.8874 3.39324 14.1575C3.06312 14.4306 2.98633 14.6435 2.98633 14.7785C2.98633 14.9136 3.06312 15.1265 3.39324 15.3996C3.71958 15.6696 4.22751 15.9394 4.90746 16.1774C6.26188 16.6515 8.17168 16.9556 10.3092 16.9556C12.4468 16.9556 14.3566 16.6515 15.711 16.1774C16.3909 15.9394 16.8989 15.6696 17.2252 15.3996C17.5553 15.1265 17.6321 14.9136 17.6321 14.7785C17.6321 14.6435 17.5553 14.4306 17.2252 14.1575C16.8989 13.8874 16.3909 13.6176 15.711 13.3797C14.4833 12.95 12.7993 12.6599 10.9029 12.6094V14.3827C10.9029 14.7106 10.6372 14.9764 10.3092 14.9764C9.98134 14.9764 9.7155 14.7106 9.7155 14.3827V12.6094Z" fill="#82BB5F"/>
</g>
</svg>
