<svg width="49" height="48" viewBox="0 0 49 48" fill="none" xmlns="http://www.w3.org/2000/svg">
<path d="M40.1914 39.9998C40.1914 40.5303 39.9807 41.039 39.6056 41.4141C39.2305 41.7891 38.7218 41.9998 38.1914 41.9998H10.1914C9.66098 41.9998 9.15227 41.7891 8.7772 41.4141C8.40212 41.039 8.19141 40.5303 8.19141 39.9998V21.9998H2.19141L22.8454 3.22385C23.2136 2.88881 23.6936 2.70312 24.1914 2.70312C24.6892 2.70313 25.1692 2.88881 25.5374 3.22385L46.1914 21.9998H40.1914V39.9998ZM24.1914 33.9998L30.9094 27.2818C31.3273 26.864 31.6587 26.3679 31.8849 25.8219C32.111 25.276 32.2274 24.6908 32.2274 24.0998C32.2274 23.5089 32.111 22.9237 31.8849 22.3778C31.6587 21.8318 31.3273 21.3357 30.9094 20.9178C30.4915 20.5 29.9955 20.1685 29.4495 19.9424C28.9035 19.7162 28.3184 19.5998 27.7274 19.5998C27.1364 19.5998 26.5513 19.7162 26.0053 19.9424C25.4593 20.1685 24.9633 20.5 24.5454 20.9178L24.1914 21.2718L23.8374 20.9178C23.4195 20.5 22.9235 20.1685 22.3775 19.9424C21.8315 19.7162 21.2464 19.5998 20.6554 19.5998C20.0644 19.5998 19.4793 19.7162 18.9333 19.9424C18.3873 20.1685 17.8913 20.5 17.4734 20.9178C17.0555 21.3357 16.7241 21.8318 16.4979 22.3778C16.2718 22.9237 16.1554 23.5089 16.1554 24.0998C16.1554 24.6908 16.2718 25.276 16.4979 25.8219C16.7241 26.3679 17.0555 26.864 17.4734 27.2818L24.1914 33.9998Z" fill="#DBA77B"/>
</svg>
