<svg width="24" height="25" viewBox="0 0 24 25" fill="none" xmlns="http://www.w3.org/2000/svg">
<path d="M12 2.854C14.717 2.854 15.056 2.864 16.122 2.914C17.187 2.964 17.912 3.131 18.55 3.379C19.21 3.633 19.766 3.977 20.322 4.532C20.8305 5.0319 21.224 5.63659 21.475 6.304C21.722 6.941 21.89 7.667 21.94 8.732C21.987 9.798 22 10.137 22 12.854C22 15.571 21.99 15.91 21.94 16.976C21.89 18.041 21.722 18.766 21.475 19.404C21.2247 20.0718 20.8311 20.6766 20.322 21.176C19.822 21.6843 19.2173 22.0778 18.55 22.329C17.913 22.576 17.187 22.744 16.122 22.794C15.056 22.841 14.717 22.854 12 22.854C9.283 22.854 8.944 22.844 7.878 22.794C6.813 22.744 6.088 22.576 5.45 22.329C4.78233 22.0785 4.17753 21.6849 3.678 21.176C3.16941 20.6762 2.77593 20.0715 2.525 19.404C2.277 18.767 2.11 18.041 2.06 16.976C2.013 15.91 2 15.571 2 12.854C2 10.137 2.01 9.798 2.06 8.732C2.11 7.666 2.277 6.942 2.525 6.304C2.77524 5.63618 3.1688 5.03132 3.678 4.532C4.17767 4.02323 4.78243 3.62973 5.45 3.379C6.088 3.131 6.812 2.964 7.878 2.914C8.944 2.867 9.283 2.854 12 2.854ZM12 7.854C10.6739 7.854 9.40215 8.38078 8.46447 9.31847C7.52678 10.2562 7 11.5279 7 12.854C7 14.1801 7.52678 15.4519 8.46447 16.3895C9.40215 17.3272 10.6739 17.854 12 17.854C13.3261 17.854 14.5979 17.3272 15.5355 16.3895C16.4732 15.4519 17 14.1801 17 12.854C17 11.5279 16.4732 10.2562 15.5355 9.31847C14.5979 8.38078 13.3261 7.854 12 7.854ZM18.5 7.604C18.5 7.27248 18.3683 6.95454 18.1339 6.72012C17.8995 6.4857 17.5815 6.354 17.25 6.354C16.9185 6.354 16.6005 6.4857 16.3661 6.72012C16.1317 6.95454 16 7.27248 16 7.604C16 7.93552 16.1317 8.25346 16.3661 8.48788C16.6005 8.7223 16.9185 8.854 17.25 8.854C17.5815 8.854 17.8995 8.7223 18.1339 8.48788C18.3683 8.25346 18.5 7.93552 18.5 7.604ZM12 9.854C12.7956 9.854 13.5587 10.1701 14.1213 10.7327C14.6839 11.2953 15 12.0584 15 12.854C15 13.6496 14.6839 14.4127 14.1213 14.9753C13.5587 15.5379 12.7956 15.854 12 15.854C11.2044 15.854 10.4413 15.5379 9.87868 14.9753C9.31607 14.4127 9 13.6496 9 12.854C9 12.0584 9.31607 11.2953 9.87868 10.7327C10.4413 10.1701 11.2044 9.854 12 9.854Z" fill="#DBA77B"/>
</svg>
