<svg width="49" height="48" viewBox="0 0 49 48" fill="none" xmlns="http://www.w3.org/2000/svg">
<path d="M26.5916 4V6.556L36.5916 9.892L43.8556 7.472L45.1215 11.264L39.0576 13.286L45.2496 30.31C43.0656 32.584 39.9916 34 36.5916 34C33.1896 34 30.1176 32.584 27.9336 30.31L34.1215 13.286L26.5916 10.774V38H34.5916V42H14.5915V38H22.5916V10.774L15.0555 13.286L21.2475 30.31C19.0655 32.584 15.9916 34 12.5915 34C9.18959 34 6.11759 32.584 3.93359 30.31L10.1216 13.286L4.06159 11.266L5.32759 7.47L12.5915 9.89L22.5916 6.556V4H26.5916ZM36.5916 18.206L33.7556 26H39.4256L36.5916 18.206ZM12.5915 18.206L9.75559 26H15.4255L12.5915 18.206Z" fill="#DBA77B"/>
</svg>
