<svg xmlns="http://www.w3.org/2000/svg" width="25" height="25" viewBox="0 0 25 25" fill="none"><path d="M12.5 2.5C18.134 2.5 22.5 6.627 22.5 12.2C22.5 17.773 18.134 21.9 12.5 21.9C11.5221 21.9025 10.5484 21.7733 9.605 21.516C9.4278 21.4673 9.23924 21.4811 9.071 21.555L7.087 22.431C6.96713 22.484 6.83608 22.5067 6.70537 22.4972C6.57467 22.4876 6.44831 22.4461 6.3374 22.3763C6.22649 22.3065 6.13444 22.2105 6.06933 22.0967C6.00422 21.983 5.96805 21.855 5.964 21.724L5.909 19.944C5.9054 19.8358 5.87977 19.7294 5.8337 19.6314C5.78762 19.5334 5.72205 19.4458 5.641 19.374C3.695 17.635 2.5 15.117 2.5 12.2C2.5 6.627 6.867 2.5 12.5 2.5ZM6.495 15.037C6.213 15.484 6.763 15.988 7.184 15.668L10.339 13.274C10.4431 13.1954 10.57 13.1529 10.7005 13.1529C10.831 13.1529 10.9579 13.1954 11.062 13.274L13.399 15.024C13.5648 15.1483 13.7545 15.237 13.9562 15.2844C14.158 15.3317 14.3673 15.3368 14.5711 15.2992C14.7749 15.2616 14.9687 15.1822 15.1403 15.066C15.3119 14.9498 15.4575 14.7993 15.568 14.624L18.505 9.964C18.787 9.516 18.237 9.012 17.816 9.331L14.661 11.727C14.5569 11.8056 14.43 11.8481 14.2995 11.8481C14.169 11.8481 14.0421 11.8056 13.938 11.727L11.601 9.977C11.4352 9.85265 11.2455 9.764 11.0438 9.71664C10.842 9.66927 10.6327 9.66422 10.4289 9.7018C10.2251 9.73938 10.0313 9.81878 9.85971 9.93499C9.68814 10.0512 9.54251 10.2017 9.432 10.377L6.495 15.037Z" fill="#DBA77B"></path></svg>