<svg width="19" height="18" viewBox="0 0 19 18" fill="none" xmlns="http://www.w3.org/2000/svg">
<path d="M3.83023 11.3906L1.73291 12.4379C1.60986 12.4994 1.52271 12.5661 1.47145 12.6379C1.42016 12.7097 1.39453 12.8071 1.39453 12.9302C1.39453 13.0533 1.42016 13.1507 1.47145 13.2225C1.52271 13.2943 1.60986 13.361 1.73291 13.4225L8.26466 16.6841C8.53125 16.814 8.86622 16.8722 9.26953 16.8585C9.67284 16.8722 10.0078 16.814 10.2744 16.6841L16.8061 13.4225C16.9292 13.361 17.0163 13.2943 17.0676 13.2225C17.1189 13.1507 17.1445 13.0533 17.1445 12.9302C17.1445 12.8071 17.1189 12.7097 17.0676 12.6379C17.0163 12.5661 16.9292 12.4994 16.8061 12.4379L14.7088 11.3906L13.4497 12.0193L15.2738 12.9302L9.77859 15.6742C9.72368 15.7002 9.58537 15.7436 9.30764 15.7341L9.26953 15.7328L9.23142 15.7341C8.95369 15.7436 8.81538 15.7002 8.76047 15.6742L3.26519 12.9302L5.08931 12.0193L3.83023 11.3906ZM1.73291 8.51497L3.84482 7.46039L5.1039 8.08912L3.26519 9.00726L8.76047 11.7513C8.81538 11.7772 8.95369 11.8206 9.23142 11.8112L9.26953 11.8099L9.30764 11.8112C9.58537 11.8206 9.72368 11.7772 9.77859 11.7513L15.2738 9.00726L13.4351 8.08912L14.6942 7.46039L16.8061 8.51497C16.9292 8.57649 17.0163 8.64315 17.0676 8.71497C17.1189 8.78676 17.1445 8.88418 17.1445 9.00726C17.1445 9.13035 17.1189 9.2278 17.0676 9.29959C17.0163 9.37138 16.9292 9.43803 16.8061 9.49959L10.2744 12.7612C10.0078 12.8911 9.67284 12.9492 9.26953 12.9356C8.86622 12.9492 8.53125 12.8911 8.26466 12.7612L1.73291 9.49959C1.60986 9.43803 1.52271 9.37138 1.47142 9.29959C1.42016 9.2278 1.39453 9.13035 1.39453 9.00726C1.39453 8.88418 1.42016 8.78676 1.47142 8.71497C1.52271 8.64315 1.60986 8.57649 1.73291 8.51497ZM8.26466 1.30129L1.73291 4.56288C1.60986 4.62444 1.52271 4.69109 1.47142 4.76288C1.42016 4.83471 1.39453 4.93213 1.39453 5.05521C1.39453 5.17829 1.42016 5.27571 1.47142 5.34753C1.52271 5.41932 1.60986 5.48598 1.73291 5.54754L8.26466 8.80912C8.53125 8.93902 8.86622 8.99714 9.26953 8.98346C9.67284 8.99714 10.0078 8.93902 10.2744 8.80912L16.8061 5.54754C16.9292 5.48598 17.0163 5.41932 17.0676 5.34753C17.1189 5.27571 17.1445 5.17829 17.1445 5.05521C17.1445 4.93213 17.1189 4.83471 17.0676 4.76288C17.0163 4.69109 16.9292 4.62444 16.8061 4.56288L10.2744 1.30129C10.0078 1.17139 9.67284 1.11328 9.26953 1.12695C8.86622 1.11328 8.53125 1.17139 8.26466 1.30129ZM9.26953 2.25259L9.30764 2.25129C9.58534 2.24186 9.72368 2.28525 9.77859 2.31119L15.2738 5.05521L9.77859 7.79922C9.72368 7.82517 9.58537 7.86855 9.30764 7.85913L9.26953 7.85783L9.23142 7.85913C8.95369 7.86855 8.81538 7.82517 8.76047 7.79922L3.26519 5.05521L8.76047 2.31119C8.81538 2.28525 8.95372 2.24186 9.23142 2.25129L9.26953 2.25259Z" fill="white"/>
</svg>
