<svg width="20" height="20" viewBox="0 0 20 20" fill="none" xmlns="http://www.w3.org/2000/svg">
<mask id="mask0_1704_11778" style="mask-type:luminance" maskUnits="userSpaceOnUse" x="0" y="0" width="20" height="20">
<path d="M19.4805 0.134033H0.480469V19.134H19.4805V0.134033Z" fill="white"/>
</mask>
<g mask="url(#mask0_1704_11778)">
<path d="M19.4805 11.9049C19.4805 12.3592 19.1088 12.731 18.6544 12.731H14.7718C14.4207 12.731 14.1109 12.5451 13.987 12.194L13.3675 10.4592L11.3435 17.2951C11.2403 17.6462 10.9098 17.894 10.5588 17.894H10.5381C10.1663 17.8734 9.83591 17.6255 9.7533 17.2538L7.08917 5.70927L5.4783 12.1321C5.39569 12.5038 5.06525 12.731 4.67286 12.731H1.30656C0.852208 12.731 0.480469 12.3592 0.480469 11.9049C0.480469 11.4505 0.852208 11.0788 1.30656 11.0788H4.03264L6.32504 1.97122C6.40764 1.59949 6.75873 1.37231 7.13047 1.37231C7.50221 1.37231 7.83264 1.64079 7.93591 2.01253L10.662 13.8255L12.5207 7.54731C12.624 7.19622 12.9338 6.9484 13.2848 6.9484C13.6359 6.92775 13.9664 7.15492 14.0903 7.48535L15.3501 11.0788H18.6544C19.1088 11.0788 19.4805 11.4505 19.4805 11.9049Z" fill="#82BB5F"/>
</g>
</svg>
