<svg width="181" height="51" viewBox="0 0 181 51" fill="none" xmlns="http://www.w3.org/2000/svg">
<path d="M155.512 2.53014C155.512 2.65175 155.512 2.77204 155.512 2.89364C155.512 4.0423 155.504 5.19094 155.518 6.3396C155.521 6.64905 155.415 6.74905 155.11 6.74771C152.938 6.73824 150.767 6.7423 148.596 6.7423C148.097 6.7423 148.096 6.74365 148.096 7.2423C148.096 13.3112 148.096 19.3815 148.096 25.4504C148.096 25.9801 148.095 25.9815 147.585 25.9815C146.005 25.9815 144.422 25.9815 142.842 25.9815C142.282 25.9815 142.28 25.9801 142.28 25.4234C142.28 19.4099 142.28 13.3977 142.28 7.38419C142.28 7.28283 142.274 7.18149 142.282 7.08013C142.3 6.83554 142.198 6.72204 141.952 6.74094C141.851 6.74905 141.751 6.7423 141.651 6.7423C139.557 6.7423 137.464 6.7423 135.37 6.7423C134.934 6.7423 134.923 6.73149 134.923 6.28554C134.922 4.85582 134.922 3.42474 134.923 1.995C134.923 1.53824 134.932 1.53014 135.397 1.53014C141.064 1.53014 146.733 1.53014 152.4 1.53014C155.229 1.53014 158.057 1.54095 160.883 1.51933C161.34 1.51662 161.594 1.65446 161.833 2.05581C163.521 4.86663 165.124 7.72608 166.743 10.5774C167.058 11.1328 167.03 11.1734 167.354 10.5693C168.904 7.67879 170.51 4.82204 172.166 1.9923C172.368 1.64635 172.594 1.51662 172.988 1.52068C174.746 1.5396 176.507 1.52879 178.266 1.53149C178.394 1.53149 178.56 1.47879 178.641 1.60852C178.724 1.74635 178.585 1.85716 178.519 1.96662C175.686 6.695 172.852 11.422 170.011 16.145C169.872 16.3761 169.811 16.6085 169.811 16.8774C169.818 19.749 169.816 22.6207 169.815 25.4923C169.815 25.9801 169.81 25.9829 169.333 25.9842C167.741 25.9856 166.149 25.9856 164.557 25.9842C164.071 25.9842 164.055 25.9679 164.055 25.4667C164.055 22.5949 164.052 19.7234 164.058 16.8518C164.058 16.5693 163.986 16.3328 163.84 16.0923C161.488 12.2288 159.144 8.35986 156.798 4.4923C156.397 3.83149 155.993 3.17204 155.591 2.51257C155.566 2.51797 155.539 2.52338 155.512 2.53014Z" fill="#DBA77B"/>
<path d="M45.6573 13.8612C45.6186 11.5612 45.9859 9.44361 46.9762 7.47874C48.6586 4.14091 51.3378 2.07063 54.9658 1.31388C57.6556 0.753066 60.3322 0.861174 62.918 1.85982C66.137 3.10307 68.3419 5.40171 69.5458 8.66118C70.2861 10.6639 70.4798 12.7436 70.3463 14.872C70.2286 16.7396 69.8425 18.5356 68.9739 20.1895C67.1258 23.7031 64.2167 25.726 60.3375 26.3382C58.4481 26.6356 56.5545 26.6193 54.7039 26.1476C49.8906 24.922 47.0083 21.7856 45.9366 16.9112C45.8497 16.5165 45.7909 16.1139 45.7414 15.7125C45.6627 15.0639 45.6412 14.4112 45.6573 13.8612ZM64.4319 13.6585C64.3784 12.9098 64.3531 12.0544 64.1606 11.2166C63.7517 9.4328 62.8819 7.96118 61.3184 6.97739C60.1331 6.23144 58.8248 6.01522 57.4445 6.11793C54.8789 6.30847 53.1805 7.70307 52.2652 10.0558C51.438 12.1814 51.4459 14.3936 51.9778 16.5949C52.3814 18.2653 53.2687 19.626 54.7266 20.5557C55.9011 21.3045 57.2012 21.5004 58.5683 21.4004C60.8266 21.2342 62.4595 20.1071 63.5152 18.1126C64.2328 16.7571 64.3864 15.2679 64.4319 13.6585Z" fill="#DBA77B"/>
<path d="M130.934 14.4205C131.219 14.5516 131.501 14.6732 131.776 14.811C133.231 15.5394 133.819 16.8407 134.064 18.3651C134.199 19.211 134.219 20.0665 134.268 20.9192C134.331 22.0084 134.339 23.1003 134.462 24.1854C134.518 24.6826 134.658 25.1543 134.873 25.6043C135.031 25.934 135.008 25.9826 134.665 25.9826C132.928 25.9867 131.191 25.9826 129.454 25.9867C129.22 25.9867 129.085 25.8867 128.998 25.6732C128.756 25.084 128.62 24.4678 128.585 23.8367C128.521 22.6799 128.485 21.5218 128.443 20.3637C128.429 19.9462 128.375 19.5326 128.278 19.1285C127.98 17.9029 127.247 17.2515 126.002 17.0785C125.637 17.0273 125.272 17.0029 124.904 17.0043C123.511 17.007 122.12 17.0043 120.728 17.0056C120.308 17.0056 120.292 17.0206 120.292 17.4407C120.291 20.1096 120.292 22.7785 120.291 25.4476C120.291 25.9732 120.28 25.984 119.775 25.9854C118.171 25.9867 116.568 25.9867 114.964 25.9854C114.513 25.9854 114.487 25.9596 114.487 25.5124C114.486 17.6746 114.486 9.83807 114.487 2.00023C114.487 1.56509 114.517 1.53401 114.939 1.53401C118.658 1.53266 122.377 1.50969 126.096 1.54482C127.909 1.56239 129.7 1.79752 131.324 2.71239C133.457 3.91374 134.558 5.7651 134.666 8.22455C134.708 9.17725 134.634 10.1151 134.303 11.0178C133.744 12.5448 132.65 13.5475 131.228 14.2313C131.148 14.2705 131.065 14.3043 130.986 14.3448C130.972 14.3556 130.964 14.3813 130.934 14.4205ZM123.35 12.6056C124.175 12.5637 125.191 12.6935 126.196 12.5313C127.349 12.3448 128.203 11.7556 128.581 10.5935C128.863 9.72996 128.815 8.85699 128.526 8.00969C128.295 7.32996 127.817 6.86239 127.155 6.57321C126.483 6.27861 125.772 6.22591 125.065 6.21239C123.598 6.184 122.128 6.20833 120.661 6.19888C120.388 6.19752 120.287 6.28807 120.288 6.56914C120.296 8.45969 120.296 10.3489 120.288 12.2394C120.287 12.5191 120.388 12.6151 120.661 12.611C121.495 12.5989 122.33 12.6056 123.35 12.6056Z" fill="#DBA77B"/>
<path d="M40.7822 14.4057C41.2433 14.6138 41.6628 14.7895 42.0517 15.0314C42.8387 15.5192 43.3345 16.2273 43.6405 17.0921C43.9625 18.0031 44.0681 18.9531 44.1242 19.9098C44.2044 21.2679 44.2552 22.6273 44.3367 23.9854C44.3714 24.5624 44.5211 25.1151 44.7856 25.6342C44.9447 25.9449 44.9233 25.9842 44.5906 25.9854C42.8427 25.9881 41.0948 25.9842 39.347 25.9895C39.1092 25.9909 38.9903 25.8854 38.8981 25.6732C38.5894 24.9584 38.4825 24.2003 38.4531 23.4354C38.4089 22.3003 38.385 21.1651 38.3128 20.0313C38.2847 19.5895 38.1952 19.161 38.0589 18.7449C37.7141 17.6949 36.9097 17.2517 35.8995 17.0868C35.5467 17.0287 35.1925 17.0071 34.8358 17.0084C33.422 17.0124 32.0083 17.0192 30.5945 17.0031C30.2497 16.999 30.1616 17.1179 30.1628 17.4517C30.1736 20.1313 30.1695 22.8098 30.1695 25.4895C30.1695 25.9881 30.1681 25.9895 29.6631 25.9895C28.0716 25.9895 26.4787 25.9909 24.8872 25.9895C24.4195 25.9895 24.4102 25.9813 24.4102 25.526C24.4102 17.6787 24.4102 9.83274 24.4102 1.98544C24.4102 1.5503 24.4248 1.53679 24.8672 1.53679C28.5512 1.53679 32.2367 1.52057 35.9208 1.5449C37.507 1.55571 39.0825 1.73409 40.555 2.38949C42.9055 3.43678 44.2912 5.22057 44.5437 7.84896C44.6828 9.2976 44.4997 10.68 43.7555 11.949C43.2128 12.8746 42.4258 13.5422 41.497 14.0463C41.282 14.1611 41.0602 14.2665 40.7822 14.4057ZM30.1709 9.40841C30.1709 10.3422 30.1816 11.2773 30.1655 12.2111C30.1602 12.5273 30.2752 12.6152 30.5731 12.6125C32.0536 12.6017 33.5342 12.6057 35.0134 12.6084C35.3703 12.6098 35.7244 12.5868 36.0772 12.5368C37.4536 12.3436 38.3461 11.499 38.592 10.1192C38.6989 9.51516 38.6683 8.91111 38.5186 8.31246C38.3061 7.46382 37.7916 6.89355 37.0019 6.553C36.3619 6.27597 35.6817 6.22597 35.0069 6.21382C33.5156 6.18679 32.0242 6.20977 30.533 6.2003C30.2564 6.19896 30.1628 6.29355 30.1655 6.57193C30.1775 7.51652 30.1709 8.46246 30.1709 9.40841Z" fill="#DBA77B"/>
<path d="M94.1016 13.7558C94.1016 9.84771 94.1016 5.94096 94.1016 2.03285C94.1016 1.53285 94.1028 1.53149 94.608 1.53149C100.421 1.53149 106.234 1.53149 112.045 1.53149C112.553 1.53149 112.553 1.53285 112.554 2.03014C112.554 3.43825 112.555 4.845 112.554 6.25311C112.554 6.7423 112.553 6.74366 112.073 6.74366C108.175 6.74366 104.279 6.74366 100.381 6.74366C99.8609 6.74366 99.8595 6.74366 99.8595 7.25447C99.8595 8.3923 99.8581 9.52878 99.8595 10.6666C99.8595 11.1139 99.8648 11.1207 100.307 11.1207C103.826 11.122 107.344 11.1207 110.864 11.1207C111.413 11.1207 111.413 11.1207 111.414 11.6801C111.414 12.9869 111.416 14.2923 111.414 15.5991C111.414 16.0383 111.4 16.0531 110.961 16.0531C107.431 16.0545 103.902 16.0531 100.371 16.0531C99.8609 16.0531 99.8609 16.0545 99.8609 16.5788C99.8609 17.7949 99.8609 19.0112 99.8609 20.2274C99.8609 20.7693 99.8609 20.7707 100.385 20.7707C104.26 20.7707 108.135 20.7707 112.01 20.7707C112.543 20.7707 112.545 20.772 112.545 21.3126C112.545 22.7085 112.546 24.1059 112.545 25.5018C112.545 25.9585 112.521 25.9842 112.076 25.9842C106.23 25.9856 100.383 25.9856 94.5384 25.9842C94.1242 25.9842 94.1055 25.964 94.1042 25.5449C94.1016 21.6153 94.1016 17.6856 94.1016 13.7558Z" fill="#DBA77B"/>
<path d="M72.3131 13.7539C72.3131 9.84716 72.3131 5.93905 72.3131 2.0323C72.3131 1.5323 72.3144 1.53095 72.8181 1.53095C76.3031 1.53095 79.7881 1.51473 83.2731 1.5377C84.9769 1.54987 86.6486 1.79041 88.1866 2.61204C90.4248 3.80797 91.7103 5.69041 92.0966 8.20393C92.3464 9.83094 92.2609 11.4445 91.6877 12.9945C90.783 15.4391 88.983 16.8971 86.5497 17.6067C85.5622 17.8945 84.5439 18.0174 83.515 18.0174C81.8447 18.0188 80.1744 18.0268 78.5053 18.012C78.17 18.0093 78.0644 18.1107 78.0656 18.4538C78.0777 20.7959 78.0723 23.1378 78.0723 25.4796C78.0723 25.9593 78.0523 25.9796 77.5886 25.9809C75.9744 25.9823 74.3602 25.9823 72.7447 25.9809C72.3305 25.9809 72.3131 25.962 72.3131 25.5404C72.3117 21.6134 72.3131 17.6837 72.3131 13.7539ZM78.0723 9.76068C78.0723 10.7512 78.0764 11.7418 78.0697 12.7309C78.0684 12.9661 78.1366 13.0823 78.3917 13.0809C80.05 13.0728 81.7084 13.1026 83.3653 13.0634C84.8272 13.0282 85.927 12.2174 86.2905 10.9728C86.4963 10.2701 86.4828 9.54582 86.3425 8.83364C86.1514 7.86743 85.5702 7.21068 84.6869 6.81472C84.115 6.55933 83.5044 6.48771 82.8936 6.4796C81.4144 6.46068 79.9338 6.4796 78.4545 6.46743C78.1633 6.46474 78.0644 6.56204 78.0684 6.85663C78.0805 7.82554 78.0723 8.79311 78.0723 9.76068Z" fill="#DBA77B"/>
<path d="M2.62695 13.7238C2.62695 9.82788 2.62695 5.93193 2.62695 2.03734C2.62695 1.53328 2.62829 1.53193 3.12805 1.53193C6.62508 1.53058 10.1208 1.51437 13.6165 1.53869C15.2975 1.55085 16.9464 1.79139 18.4658 2.59544C20.72 3.78733 22.0176 5.67518 22.4091 8.20085C22.6176 9.54814 22.5815 10.8968 22.2354 12.2184C21.4897 15.0725 19.6096 16.7913 16.8636 17.6062C15.8774 17.8995 14.8592 18.0171 13.8289 18.0184C12.1706 18.0198 10.511 18.0198 8.85264 18.0198C8.38628 18.0198 8.38494 18.0212 8.38494 18.486C8.38361 20.8049 8.38494 23.1253 8.38494 25.4442C8.38494 25.9712 8.37425 25.982 7.87049 25.982C6.26695 25.9832 4.66342 25.9832 3.06124 25.982C2.64566 25.982 2.62695 25.9631 2.62695 25.5442C2.62695 21.6049 2.62695 17.6643 2.62695 13.7238ZM8.38628 9.73599C8.38628 10.7265 8.3903 11.7157 8.38361 12.7063C8.38227 12.9495 8.43839 13.0833 8.71635 13.0806C10.3626 13.0711 12.0103 13.1022 13.6565 13.0603C14.6053 13.036 15.4912 12.7373 16.1006 11.9387C16.9171 10.8684 16.8823 9.65896 16.5415 8.43463C16.3865 7.87788 16.0177 7.45355 15.5474 7.11843C14.8298 6.60625 14.0053 6.49004 13.1661 6.47653C11.7083 6.45491 10.2504 6.47924 8.79385 6.46302C8.46111 6.45896 8.3796 6.58599 8.38361 6.89814C8.39564 7.84544 8.38628 8.79139 8.38628 9.73599Z" fill="#DBA77B"/>
<path d="M80.9703 43.9279C81.0304 43.5009 80.9809 43.1698 80.9503 42.8373C80.9448 42.782 80.9462 42.7251 80.9462 42.6684C80.9369 39.1562 80.8447 35.6454 80.8794 32.1332C80.8847 31.6129 80.8914 31.6021 81.4006 31.6009C82.4803 31.5995 83.56 31.5995 84.6397 31.6009C85.0512 31.6021 85.0847 31.6332 85.0847 32.0387C85.0859 37.9265 85.0833 43.8143 85.09 49.7036C85.09 50.0265 84.9844 50.1332 84.665 50.1306C83.3622 50.117 82.0594 50.117 80.7578 50.1306C80.4639 50.1332 80.2914 50.0332 80.1417 49.7806C77.802 45.8454 75.3272 41.9914 73.1544 37.955C73.149 37.9454 73.137 37.9414 73.0903 37.905C73.1023 38.0792 73.1183 38.2251 73.1211 38.3711C73.1958 42.1521 73.2039 45.9346 73.1998 49.717C73.1998 50.0225 73.1009 50.132 72.795 50.1279C71.6712 50.1143 70.5461 50.1239 69.4222 50.1211C69.0279 50.1198 68.9933 50.0846 68.9919 49.6684C68.9892 48.9361 68.9906 48.205 68.9906 47.4725C68.9906 42.3725 68.9906 37.2725 68.9906 32.1725C68.9906 31.5981 68.9919 31.5968 69.5692 31.5968C70.8053 31.5968 72.0412 31.605 73.2761 31.5914C73.5767 31.5887 73.7664 31.6792 73.9254 31.9468C76.054 35.5387 78.307 39.0536 80.3236 42.7131C80.528 43.09 80.7244 43.4684 80.9703 43.9279Z" fill="#DBA77B"/>
<path d="M48.2563 41.3882C48.6426 41.5733 49.0127 41.7219 49.3388 41.9626C50.1473 42.5599 50.452 43.426 50.6096 44.3679C50.7659 45.303 50.7512 46.2504 50.8113 47.1936C50.8434 47.6869 50.8474 48.1841 50.8942 48.676C50.9343 49.0908 51.0318 49.4977 51.2282 49.8719C51.3177 50.0408 51.2777 50.1233 51.0826 50.1233C49.7463 50.1219 48.4101 50.1207 47.0738 50.1219C46.8452 50.1219 46.7771 49.9558 46.7104 49.7869C46.4538 49.1369 46.4245 48.4463 46.4031 47.7611C46.3776 46.9288 46.3976 46.0922 46.264 45.2707C46.0529 43.9733 45.3807 43.3896 44.0765 43.3638C42.8859 43.3408 41.694 43.3638 40.5034 43.349C40.2001 43.3449 40.1265 43.4679 40.1279 43.7504C40.1359 45.6977 40.1318 47.6463 40.1318 49.5936C40.1318 50.1233 40.1306 50.1233 39.6215 50.1247C38.4856 50.1247 37.3498 50.1152 36.214 50.1315C35.8892 50.1355 35.7623 50.049 35.7637 49.6977C35.7729 43.8085 35.7717 37.9207 35.7649 32.0315C35.7649 31.7085 35.8745 31.5963 36.1912 31.5977C38.9079 31.6058 41.6245 31.5855 44.3412 31.6099C45.5892 31.6207 46.8332 31.7422 48.0038 32.2449C50.3076 33.2355 51.4674 35.4922 50.9904 38.0288C50.7192 39.4719 49.9148 40.4936 48.632 41.1504C48.5143 41.2071 48.3793 41.2396 48.2563 41.3882ZM40.1332 37.5936C40.1332 38.2908 40.1318 38.9882 40.1332 39.6855C40.1332 39.8477 40.1292 39.9977 40.371 39.9949C41.7167 39.9801 43.0637 40.0071 44.4079 39.9571C45.3287 39.9233 46.0863 39.5085 46.3976 38.5788C46.7184 37.6207 46.701 36.6652 45.9727 35.8611C45.4957 35.3329 44.8396 35.203 44.1754 35.1882C42.9527 35.1611 41.7287 35.1855 40.5048 35.1707C40.2054 35.1666 40.1199 35.2829 40.1265 35.5679C40.1426 36.2436 40.1318 36.9193 40.1332 37.5936Z" fill="#DBA77B"/>
<path d="M116.3 41.3632C116.763 41.6023 117.177 41.7673 117.524 42.0551C118.283 42.6848 118.551 43.5551 118.698 44.4834C118.845 45.4078 118.831 46.3443 118.889 47.2754C118.945 48.1726 118.902 49.0807 119.327 49.9132C119.405 50.0645 119.33 50.1185 119.185 50.1199C119.108 50.1214 119.029 50.1214 118.951 50.1214C117.738 50.1214 116.525 50.1118 115.311 50.1281C115 50.1321 114.852 50.0173 114.758 49.7254C114.578 49.1618 114.499 48.5862 114.484 47.9996C114.463 47.1118 114.463 46.22 114.347 45.3403C114.17 44.0104 113.529 43.4104 112.189 43.3673C110.966 43.3281 109.739 43.3604 108.515 43.3496C108.212 43.347 108.213 43.5334 108.213 43.751C108.216 45.6645 108.215 47.5781 108.215 49.4929C108.215 50.1226 108.215 50.1226 107.604 50.1226C106.491 50.1226 105.378 50.1132 104.265 50.1281C103.94 50.1321 103.848 50.0145 103.848 49.6956C103.854 43.797 103.854 37.8984 103.848 31.9984C103.848 31.6821 103.961 31.5915 104.257 31.5929C106.95 31.5996 109.644 31.5781 112.338 31.6064C113.618 31.6199 114.891 31.7334 116.099 32.2496C118.198 33.1484 119.366 35.1834 119.13 37.4767C119.005 38.701 118.569 39.7348 117.637 40.5374C117.253 40.8685 116.807 41.0956 116.3 41.3632ZM108.216 37.5699C108.216 38.2564 108.221 38.9429 108.213 39.6293C108.21 39.8645 108.281 39.9821 108.535 39.9807C109.847 39.9714 111.162 39.9996 112.473 39.9592C113.338 39.9321 114.065 39.5632 114.423 38.7159C114.741 37.9618 114.734 37.1685 114.42 36.4145C114.034 35.4874 113.207 35.2267 112.318 35.1943C111.074 35.1496 109.826 35.1848 108.581 35.1726C108.307 35.1699 108.207 35.2659 108.213 35.5456C108.224 36.22 108.215 36.8956 108.216 37.5699Z" fill="#DBA77B"/>
<path d="M87.823 40.8669C87.823 37.9507 87.823 35.0344 87.823 32.1182C87.823 31.6141 87.8377 31.598 88.3214 31.598C92.663 31.5966 97.0058 31.598 101.347 31.598C101.838 31.598 101.853 31.6129 101.853 32.1115C101.854 33.1141 101.854 34.1155 101.853 35.1182C101.853 35.5751 101.842 35.5844 101.379 35.5844C98.4958 35.5844 95.6121 35.5844 92.7285 35.5844C92.2327 35.5844 92.2313 35.5858 92.2313 36.0926C92.23 36.8588 92.23 37.6237 92.2313 38.3899C92.2313 38.8818 92.2327 38.8844 92.7097 38.8844C95.2927 38.8844 97.8758 38.8844 100.459 38.8844C100.975 38.8844 100.983 38.8926 100.984 39.4115C100.985 40.3129 100.985 41.2129 100.984 42.1141C100.983 42.594 100.964 42.6129 100.499 42.6129C97.9052 42.6141 95.31 42.6129 92.7164 42.6141C92.2339 42.6141 92.2327 42.6155 92.2327 43.1021C92.2313 43.9466 92.2327 44.7912 92.2327 45.6358C92.2327 46.1818 92.2327 46.1818 92.7591 46.1818C95.576 46.1818 98.3928 46.1818 101.21 46.1818C101.802 46.1818 101.802 46.1818 101.802 46.7966C101.802 47.7763 101.794 48.7562 101.806 49.7358C101.81 50.0304 101.708 50.1277 101.418 50.1277C97.0205 50.121 92.6228 50.1196 88.2252 50.1291C87.8858 50.1304 87.8189 49.9858 87.8203 49.6844C87.8269 46.744 87.823 43.8062 87.823 40.8669Z" fill="#DBA77B"/>
<path d="M122.473 44.0231C123.041 44.0231 123.609 44.0394 124.177 44.0164C124.498 44.0042 124.623 44.1379 124.631 44.4394C124.642 44.815 124.726 45.1731 124.874 45.519C125.128 46.1136 125.564 46.519 126.159 46.7217C127.489 47.1758 128.847 47.2217 130.201 46.8487C131.258 46.5583 131.779 45.6353 131.565 44.5515C131.454 43.992 131.101 43.6487 130.602 43.4272C129.809 43.0745 128.965 42.9217 128.124 42.7542C126.848 42.4987 125.552 42.3217 124.336 41.819C122.592 41.0987 121.269 39.9664 120.876 38.0136C120.558 36.4353 120.709 34.9095 121.726 33.5839C122.544 32.5204 123.649 31.8772 124.925 31.5636C127.19 31.0095 129.458 31.019 131.672 31.7934C133.944 32.5879 135.2 34.2475 135.475 36.6623C135.483 36.7298 135.49 36.7961 135.499 36.8636C135.547 37.2339 135.519 37.2704 135.138 37.2717C134.013 37.2745 132.889 37.2717 131.764 37.2731C131.562 37.2731 131.395 37.265 131.361 36.9947C131.152 35.3595 130.191 34.8798 128.954 34.7406C128.148 34.6501 127.332 34.6258 126.533 34.8501C125.695 35.0853 125.259 35.5934 125.188 36.4123C125.123 37.1786 125.47 37.7636 126.224 38.1365C127.086 38.565 128.025 38.7069 128.955 38.8798C130.369 39.142 131.781 39.4015 133.102 40.0136C134.6 40.7069 135.705 41.7528 136.019 43.4569C136.322 45.1028 136.134 46.6758 135.099 48.0461C134.336 49.0569 133.285 49.6826 132.098 50.0272C129.557 50.7664 126.992 50.8095 124.476 49.9406C122.004 49.0865 120.621 47.2961 120.367 44.6475C120.359 44.569 120.367 44.4894 120.358 44.4109C120.322 44.1176 120.443 44.0083 120.736 44.0164C121.314 44.0339 121.893 44.0231 122.473 44.0231Z" fill="#DBA77B"/>
<path d="M25.1509 31.6006C25.8751 31.6006 26.5981 31.6114 27.321 31.5953C27.6096 31.5884 27.7579 31.6939 27.8609 31.9723C29.2799 35.8101 30.7084 39.6439 32.1356 43.4776C32.8838 45.4898 33.6335 47.502 34.3818 49.5142C34.4126 49.5979 34.4393 49.6858 34.4767 49.7669C34.5943 50.0262 34.5248 50.1317 34.2335 50.1276C33.3315 50.1169 32.4295 50.1236 31.5288 50.1236C31.1507 50.1236 30.7712 50.1061 30.3943 50.129C30.087 50.1479 29.9348 50.0384 29.8398 49.7372C29.5832 48.9101 29.2867 48.0965 29.022 47.2723C28.9445 47.0317 28.8256 46.9303 28.569 46.9317C26.2652 46.9384 23.9602 46.9384 21.6565 46.9331C21.4146 46.9331 21.297 47.029 21.2262 47.2561C20.959 48.1033 20.6704 48.9439 20.4031 49.7912C20.327 50.0317 20.204 50.1317 19.9487 50.129C18.6913 50.1195 17.4326 50.1183 16.1751 50.129C15.8878 50.1317 15.829 50.0573 15.9319 49.779C16.7724 47.4898 17.6009 45.1953 18.4348 42.9033C19.7496 39.2912 21.0699 35.6803 22.3713 32.0628C22.501 31.702 22.6801 31.5776 23.0502 31.5925C23.7477 31.6195 24.4493 31.6006 25.1509 31.6006ZM25.1268 35.5994C25.0065 35.652 25.0052 35.7412 24.9824 35.8114C24.2088 38.1723 23.4404 40.5358 22.6613 42.8953C22.5679 43.1776 22.6667 43.2209 22.914 43.2195C24.3504 43.2128 25.7856 43.2169 27.2221 43.2154C27.631 43.2154 27.6457 43.1925 27.5107 42.7884C26.7771 40.5803 26.0435 38.3723 25.3099 36.1628C25.2484 35.9764 25.1882 35.7898 25.1268 35.5994Z" fill="#DBA77B"/>
<path d="M2.62644 40.8492C2.62644 37.9221 2.62644 34.9951 2.62644 32.0681C2.62644 31.6087 2.63579 31.5979 3.09547 31.5979C5.63439 31.5965 8.17197 31.5803 10.7095 31.6046C12.0966 31.6168 13.4649 31.7709 14.7197 32.4587C16.5223 33.4465 17.4564 34.9992 17.6756 37.0303C17.7825 38.0262 17.7303 39.014 17.4297 39.9681C16.6974 42.2898 15.0284 43.5099 12.7327 43.9599C12.1861 44.0668 11.6316 44.1099 11.073 44.106C9.83697 44.0992 8.6009 44.1128 7.3662 44.0992C7.07354 44.0965 6.98136 44.1951 6.98268 44.4898C6.99337 46.2006 6.98803 47.9128 6.98803 49.6235C6.98803 50.1195 6.9867 50.1209 6.51365 50.1209C5.35645 50.1221 4.19789 50.1114 3.04068 50.1276C2.71731 50.1317 2.62109 50.0181 2.62109 49.6979C2.63045 46.7492 2.62778 43.7992 2.62644 40.8492ZM6.98937 37.8695C6.98937 38.5898 6.99472 39.3087 6.9867 40.029C6.98403 40.2695 7.06018 40.3749 7.3114 40.3721C8.50068 40.3628 9.69264 40.3924 10.8806 40.3573C11.6663 40.3343 12.4253 40.1343 12.8957 39.4235C13.489 38.5262 13.497 37.5479 13.0507 36.5951C12.6298 35.6951 11.8013 35.414 10.8926 35.3898C9.71403 35.3587 8.53543 35.3857 7.35684 35.3762C7.08692 35.3735 6.97867 35.4599 6.98403 35.7439C6.99872 36.4532 6.98803 37.1613 6.98937 37.8695Z" fill="#DBA77B"/>
<path d="M59.6008 31.6015C62.0382 31.6015 64.4769 31.6015 66.9143 31.6015C67.3874 31.6015 67.3939 31.6096 67.3939 32.096C67.3953 33.1204 67.3833 34.1448 67.3994 35.169C67.4047 35.4974 67.2885 35.596 66.9732 35.5934C65.415 35.5812 63.8555 35.5879 62.2975 35.5879C61.7789 35.5879 61.7777 35.5893 61.7777 36.1015C61.7777 40.5934 61.7777 45.0852 61.7777 49.5771C61.7777 50.1231 61.7763 50.1245 61.2525 50.1245C60.1166 50.1245 58.9808 50.1245 57.8463 50.1245C57.3719 50.1245 57.3639 50.1163 57.3639 49.6326C57.3639 45.1407 57.3639 40.6488 57.3639 36.1568C57.3639 35.5879 57.3639 35.5879 56.7921 35.5879C55.278 35.5879 53.7641 35.5879 52.25 35.5879C51.813 35.5879 51.8038 35.5771 51.8038 35.1312C51.8024 34.096 51.813 33.0596 51.7971 32.0245C51.7917 31.6988 51.9013 31.596 52.2192 31.5974C54.6794 31.6056 57.1394 31.6015 59.6008 31.6015Z" fill="#DBA77B"/>
</svg>
