<svg width="30" height="35" viewBox="0 0 30 35" fill="none" xmlns="http://www.w3.org/2000/svg">
<mask id="mask0_1_201" style="mask-type:luminance" maskUnits="userSpaceOnUse" x="0" y="0" width="30" height="31">
<path d="M0 0.5V30.5H30V0.5H0Z" fill="white"/>
</mask>
<g mask="url(#mask0_1_201)">
<mask id="mask1_1_201" style="mask-type:luminance" maskUnits="userSpaceOnUse" x="0" y="0" width="30" height="31">
<path d="M0 30.5V0.5H30V30.5H0Z" fill="white"/>
</mask>
<g mask="url(#mask1_1_201)">
<path d="M2.50201 15.5C2.50201 22.3989 8.10112 27.998 15 27.998C21.8989 27.998 27.498 22.3989 27.498 15.5C27.498 8.60115 21.8989 3.00205 15 3.00205C8.10112 3.00205 2.50201 8.60115 2.50201 15.5ZM13.9127 9.61349L18.9119 14.6127C19.1618 14.8626 19.2868 15.1751 19.2868 15.5C19.2868 15.825 19.1618 16.1374 18.9119 16.3874L13.9127 21.3866C13.4253 21.874 12.6379 21.874 12.1505 21.3866C11.663 20.8992 11.663 20.0993 12.1505 19.6119L16.2623 15.5L12.1505 11.3882C11.663 10.9008 11.663 10.1009 12.1505 9.61349C12.6379 9.12607 13.4253 9.12607 13.9127 9.61349Z" fill="black"/>
</g>
</g>
</svg>
