<svg width="20" height="20" viewBox="0 0 20 20" fill="none" xmlns="http://www.w3.org/2000/svg">
<path d="M13.4493 8.14965C13.4493 11.9496 12.143 15.5715 10.4805 15.5715C8.81797 15.5715 7.51172 11.9496 7.51172 8.14965C7.51172 4.34965 10.4805 3.69653 10.4805 3.69653C10.4805 3.69653 13.4493 4.34965 13.4493 8.14965Z" stroke="#82BB5F" stroke-miterlimit="10" stroke-linecap="round" stroke-linejoin="round"/>
<path d="M10.4805 15.5715C9.17422 15.5715 8.10547 16.3434 8.10547 17.3528H12.8555C12.8555 16.3434 11.7868 15.5715 10.4805 15.5715Z" stroke="#82BB5F" stroke-miterlimit="10" stroke-linecap="round" stroke-linejoin="round"/>
<path d="M4.54297 6.66528C5.52673 6.66528 6.32422 5.60196 6.32422 4.29028C6.32422 2.9786 5.52673 1.91528 4.54297 1.91528C3.55921 1.91528 2.76172 2.9786 2.76172 4.29028C2.76172 5.60196 3.55921 6.66528 4.54297 6.66528Z" stroke="#82BB5F" stroke-miterlimit="10" stroke-linecap="round" stroke-linejoin="round"/>
<path d="M4.54297 4.88403V1.91528" stroke="#82BB5F" stroke-miterlimit="10" stroke-linecap="round" stroke-linejoin="round"/>
<path d="M16.418 6.66528C17.4018 6.66528 18.1993 5.60196 18.1993 4.29028C18.1993 2.9786 17.4018 1.91528 16.418 1.91528C15.4342 1.91528 14.6367 2.9786 14.6367 4.29028C14.6367 5.60196 15.4342 6.66528 16.418 6.66528Z" stroke="#82BB5F" stroke-miterlimit="10" stroke-linecap="round" stroke-linejoin="round"/>
<path d="M16.418 4.88403V1.91528" stroke="#82BB5F" stroke-miterlimit="10" stroke-linecap="round" stroke-linejoin="round"/>
<path d="M8.10547 1.32153V2.50903" stroke="#82BB5F" stroke-miterlimit="10" stroke-linecap="round" stroke-linejoin="round"/>
<path d="M12.8555 1.32153V2.50903" stroke="#82BB5F" stroke-miterlimit="10" stroke-linecap="round" stroke-linejoin="round"/>
<path d="M13.332 9.98872C15.232 9.63247 16.8945 8.91997 18.2007 7.96997" stroke="#82BB5F" stroke-miterlimit="10" stroke-linecap="round" stroke-linejoin="round"/>
<path d="M2.76172 7.91138C4.00859 8.86138 5.73047 9.57388 7.63047 9.93013" stroke="#82BB5F" stroke-miterlimit="10" stroke-linecap="round" stroke-linejoin="round"/>
<path d="M13.0352 11.8887C14.9946 11.6512 16.7164 11.2356 18.2008 10.6418" stroke="#82BB5F" stroke-miterlimit="10" stroke-linecap="round" stroke-linejoin="round"/>
<path d="M2.76172 10.5833C4.24609 11.1771 6.02734 11.6521 7.92734 11.8302" stroke="#82BB5F" stroke-miterlimit="10" stroke-linecap="round" stroke-linejoin="round"/>
</svg>
