<svg width="19" height="18" viewBox="0 0 19 18" fill="none" xmlns="http://www.w3.org/2000/svg">
<path d="M12.9102 1.5C12.9102 1.81066 13.162 2.0625 13.4727 2.0625H16.1225L10.543 7.64201V6C10.543 5.68934 10.2911 5.4375 9.98047 5.4375C9.66981 5.4375 9.41797 5.68934 9.41797 6V9C9.41797 9.31066 9.66981 9.5625 9.98047 9.5625H12.9805C13.2912 9.5625 13.543 9.31066 13.543 9C13.543 8.68934 13.2912 8.4375 12.9805 8.4375H11.3385L16.918 2.85799V5.50781C16.918 5.81847 17.1698 6.07031 17.4805 6.07031C17.7912 6.07031 18.043 5.81847 18.043 5.50781V1.5C18.043 1.18934 17.7912 0.9375 17.4805 0.9375H13.4727C13.162 0.9375 12.9102 1.18934 12.9102 1.5Z" fill="white"/>
<path d="M15.7942 5.57276C15.8283 6.47227 16.5664 7.19152 17.4733 7.1953C17.4805 7.73987 17.4805 8.33904 17.4805 9C17.4805 12.5355 17.4805 14.3033 16.3822 15.4017C15.2838 16.5 13.516 16.5 9.98047 16.5C6.44494 16.5 4.67717 16.5 3.57882 15.4017C2.48047 14.3033 2.48047 12.5355 2.48047 9C2.48047 5.46447 2.48047 3.6967 3.57882 2.59835C4.67717 1.5 6.44494 1.5 9.98047 1.5C10.6414 1.5 11.2406 1.5 11.7852 1.50718C11.789 2.41413 12.5082 3.15223 13.4077 3.18627L11.4406 5.15342C11.1484 4.65058 10.6039 4.3125 9.98047 4.3125C9.04849 4.3125 8.29297 5.06802 8.29297 6V9C8.29297 9.93198 9.04849 10.6875 9.98047 10.6875H12.9805C13.9125 10.6875 14.668 9.93198 14.668 9C14.668 8.37656 14.3299 7.83208 13.8271 7.5399L15.7942 5.57276Z" fill="white"/>
</svg>
