<svg width="20" height="21" viewBox="0 0 20 21" fill="none" xmlns="http://www.w3.org/2000/svg">
<path d="M10 20.854C4.477 20.854 0 16.377 0 10.854C0 5.331 4.477 0.854004 10 0.854004C15.523 0.854004 20 5.331 20 10.854C20 16.377 15.523 20.854 10 20.854ZM6.89 12.024L6.903 12.017L7.773 14.887C7.885 15.198 8.039 15.254 8.226 15.228C8.414 15.203 8.513 15.102 8.636 14.984L9.824 13.836L12.374 15.724C12.84 15.981 13.175 15.848 13.291 15.292L14.948 7.47C15.131 6.742 14.811 6.45 14.246 6.682L4.513 10.442C3.849 10.708 3.853 11.08 4.393 11.245L6.89 12.024Z" fill="#DBA77B"/>
</svg>
