<svg width="25" height="26" viewBox="0 0 25 26" fill="none" xmlns="http://www.w3.org/2000/svg">
<path d="M3.27002 22C3.0048 22 2.75045 21.8946 2.56291 21.7071C2.37538 21.5196 2.27002 21.2652 2.27002 21V5C2.27002 4.73478 2.37538 4.48043 2.56291 4.29289C2.75045 4.10536 3.0048 4 3.27002 4H10.684L12.684 6H20.27C20.5352 6 20.7896 6.10536 20.9771 6.29289C21.1646 6.48043 21.27 6.73478 21.27 7V10H4.27002V19.996L6.27002 12H22.77L20.46 21.243C20.4058 21.4592 20.281 21.6512 20.1052 21.7883C19.9295 21.9255 19.7129 22 19.49 22H3.27002Z" fill="#DBA77B"/>
</svg>
