<svg width="17" height="13" viewBox="0 0 17 13" fill="none" xmlns="http://www.w3.org/2000/svg">
<path d="M1.39062 1.48689L1.87839 1.97466C2.32643 2.42269 2.93408 2.67439 3.5677 2.67439C4.20132 2.67439 4.809 2.42269 5.25703 1.97466L5.44088 1.7908C5.88892 1.34276 6.49659 1.09106 7.13021 1.09106C7.76386 1.09106 8.37147 1.34276 8.81955 1.7908L9.00338 1.97466C9.45146 2.42269 10.0591 2.67439 10.6928 2.67439C11.3264 2.67439 11.934 2.42269 12.3821 1.97466L12.5659 1.7908C13.014 1.34276 13.6216 1.09106 14.2553 1.09106C14.8889 1.09106 15.4965 1.34276 15.9446 1.7908L16.4323 2.27856M1.39062 6.23689L1.87839 6.72464C2.32643 7.17273 2.93408 7.42443 3.5677 7.42443C4.20132 7.42443 4.809 7.17273 5.25703 6.72464L5.44088 6.54081C5.88892 6.09273 6.49659 5.84106 7.13021 5.84106C7.76386 5.84106 8.37147 6.09273 8.81955 6.54081L9.00338 6.72464C9.45146 7.17273 10.0591 7.42443 10.6928 7.42443C11.3264 7.42443 11.934 7.17273 12.3821 6.72464L12.5659 6.54081C13.014 6.09273 13.6216 5.84106 14.2553 5.84106C14.8889 5.84106 15.4965 6.09273 15.9446 6.54081L16.4323 7.02856M1.39062 10.9869L1.87839 11.4746C2.32643 11.9227 2.93408 12.1744 3.5677 12.1744C4.20132 12.1744 4.809 11.9227 5.25703 11.4746L5.44088 11.2908C5.88892 10.8427 6.49659 10.591 7.13021 10.591C7.76386 10.591 8.37147 10.8427 8.81955 11.2908L9.00338 11.4746C9.45146 11.9227 10.0591 12.1744 10.6928 12.1744C11.3264 12.1744 11.934 11.9227 12.3821 11.4746L12.5659 11.2908C13.014 10.8427 13.6216 10.591 14.2553 10.591C14.8889 10.591 15.4965 10.8427 15.9446 11.2908L16.4323 11.7785" stroke="#82BB5F" stroke-linecap="round" stroke-linejoin="round"/>
</svg>
