<svg width="20" height="21" viewBox="0 0 20 21" fill="none" xmlns="http://www.w3.org/2000/svg">
<path d="M10 0.854004C12.717 0.854004 13.056 0.864004 14.122 0.914004C15.187 0.964004 15.912 1.131 16.55 1.379C17.21 1.633 17.766 1.977 18.322 2.532C18.8305 3.0319 19.224 3.63659 19.475 4.304C19.722 4.941 19.89 5.667 19.94 6.732C19.987 7.798 20 8.137 20 10.854C20 13.571 19.99 13.91 19.94 14.976C19.89 16.041 19.722 16.766 19.475 17.404C19.2247 18.0718 18.8311 18.6766 18.322 19.176C17.822 19.6843 17.2173 20.0778 16.55 20.329C15.913 20.576 15.187 20.744 14.122 20.794C13.056 20.841 12.717 20.854 10 20.854C7.283 20.854 6.944 20.844 5.878 20.794C4.813 20.744 4.088 20.576 3.45 20.329C2.78233 20.0785 2.17753 19.6849 1.678 19.176C1.16941 18.6762 0.77593 18.0715 0.525 17.404C0.277 16.767 0.11 16.041 0.0599999 14.976C0.0129999 13.91 0 13.571 0 10.854C0 8.137 0.00999994 7.798 0.0599999 6.732C0.11 5.666 0.277 4.942 0.525 4.304C0.77524 3.63618 1.1688 3.03132 1.678 2.532C2.17767 2.02323 2.78243 1.62973 3.45 1.379C4.088 1.131 4.812 0.964004 5.878 0.914004C6.944 0.867004 7.283 0.854004 10 0.854004ZM10 5.854C8.6739 5.854 7.40215 6.38078 6.46447 7.31847C5.52678 8.25615 5 9.5279 5 10.854C5 12.1801 5.52678 13.4519 6.46447 14.3895C7.40215 15.3272 8.6739 15.854 10 15.854C11.3261 15.854 12.5979 15.3272 13.5355 14.3895C14.4732 13.4519 15 12.1801 15 10.854C15 9.5279 14.4732 8.25615 13.5355 7.31847C12.5979 6.38078 11.3261 5.854 10 5.854ZM16.5 5.604C16.5 5.27248 16.3683 4.95454 16.1339 4.72012C15.8995 4.4857 15.5815 4.354 15.25 4.354C14.9185 4.354 14.6005 4.4857 14.3661 4.72012C14.1317 4.95454 14 5.27248 14 5.604C14 5.93552 14.1317 6.25346 14.3661 6.48788C14.6005 6.7223 14.9185 6.854 15.25 6.854C15.5815 6.854 15.8995 6.7223 16.1339 6.48788C16.3683 6.25346 16.5 5.93552 16.5 5.604ZM10 7.854C10.7956 7.854 11.5587 8.17007 12.1213 8.73268C12.6839 9.2953 13 10.0584 13 10.854C13 11.6496 12.6839 12.4127 12.1213 12.9753C11.5587 13.5379 10.7956 13.854 10 13.854C9.2044 13.854 8.4413 13.5379 7.87868 12.9753C7.31607 12.4127 7 11.6496 7 10.854C7 10.0584 7.31607 9.2953 7.87868 8.73268C8.4413 8.17007 9.2044 7.854 10 7.854Z" fill="#DBA77B"/>
</svg>
