<svg width="14" height="17" viewBox="0 0 14 17" fill="none" xmlns="http://www.w3.org/2000/svg">
<path d="M11.8462 12.0229L7.07324 16.7959L2.30024 12.0229C1.35625 11.0789 0.713383 9.8762 0.452943 8.56683C0.192493 7.25746 0.326173 5.90026 0.837063 4.66687C1.34796 3.43347 2.21312 2.37927 3.32315 1.63757C4.43318 0.89588 5.73822 0.5 7.07324 0.5C8.40824 0.5 9.71334 0.89588 10.8233 1.63757C11.9333 2.37927 12.7985 3.43347 13.3094 4.66687C13.8203 5.90026 13.954 7.25746 13.6935 8.56683C13.4331 9.8762 12.7902 11.0789 11.8462 12.0229ZM7.07324 8.74994C7.47107 8.74994 7.8526 8.59191 8.13394 8.3106C8.41524 8.0293 8.57324 7.64777 8.57324 7.24994C8.57324 6.85212 8.41524 6.47059 8.13394 6.18928C7.8526 5.90798 7.47107 5.74994 7.07324 5.74994C6.67542 5.74994 6.29389 5.90798 6.01258 6.18928C5.73128 6.47059 5.57324 6.85212 5.57324 7.24994C5.57324 7.64777 5.73128 8.0293 6.01258 8.3106C6.29389 8.59191 6.67542 8.74994 7.07324 8.74994Z" fill="currentColor"/>
</svg>
 