<svg width="20" height="19" viewBox="0 0 20 19" fill="none" xmlns="http://www.w3.org/2000/svg">
<path d="M8.48009 6.82303C8.22126 6.5642 7.80159 6.5642 7.54276 6.82303C7.28393 7.08187 7.28393 7.50153 7.54276 7.76035L9.28339 9.50101L7.54278 11.2417C7.28395 11.5004 7.28395 11.9201 7.54278 12.179C7.80161 12.4378 8.22127 12.4378 8.48009 12.179L10.2207 10.4384L11.9613 12.179C12.2201 12.4378 12.6398 12.4378 12.8987 12.179C13.1575 11.9201 13.1575 11.5004 12.8987 11.2416L11.158 9.50101L12.8987 7.76035C13.1575 7.50154 13.1575 7.08189 12.8987 6.82306C12.6398 6.56422 12.2201 6.56422 11.9613 6.82306L10.2207 8.56365L8.48009 6.82303Z" fill="#FF5959"/>
<path fill-rule="evenodd" clip-rule="evenodd" d="M10.2197 0C4.97303 0 0.719727 4.2533 0.719727 9.5C0.719727 14.7467 4.97303 19 10.2197 19C15.4664 19 19.7197 14.7467 19.7197 9.5C19.7197 4.2533 15.4664 0 10.2197 0ZM2.04531 9.5C2.04531 4.9854 5.70513 1.32558 10.2197 1.32558C14.7343 1.32558 18.3941 4.9854 18.3941 9.5C18.3941 14.0146 14.7343 17.6744 10.2197 17.6744C5.70513 17.6744 2.04531 14.0146 2.04531 9.5Z" fill="#FF5959"/>
</svg>
