<svg width="25" height="25" viewBox="0 0 25 25" fill="none" xmlns="http://www.w3.org/2000/svg">
<path d="M2.20117 13.5001H7.67817C7.84929 16.667 8.85872 19.7315 10.6032 22.3801C8.4181 22.0369 6.40837 20.9793 4.88819 19.3726C3.36801 17.7659 2.42309 15.7008 2.20117 13.5001ZM2.20117 11.5001C2.42309 9.29942 3.36801 7.23429 4.88819 5.62763C6.40837 4.02097 8.4181 2.96334 10.6032 2.62012C8.85872 5.26873 7.84929 8.33326 7.67817 11.5001H2.20117ZM22.1012 11.5001H16.6242C16.4531 8.33326 15.4436 5.26873 13.6992 2.62012C15.8842 2.96334 17.894 4.02097 19.4142 5.62763C20.9343 7.23429 21.8793 9.29942 22.1012 11.5001ZM22.1012 13.5001C21.8793 15.7008 20.9343 17.7659 19.4142 19.3726C17.894 20.9793 15.8842 22.0369 13.6992 22.3801C15.4436 19.7315 16.4531 16.667 16.6242 13.5001H22.1012ZM9.68117 13.5001H14.6212C14.4566 16.1996 13.6065 18.8126 12.1512 21.0921C10.6959 18.8126 9.84577 16.1996 9.68117 13.5001ZM9.68117 11.5001C9.84577 8.80063 10.6959 6.18768 12.1512 3.90812C13.6065 6.18768 14.4566 8.80063 14.6212 11.5001H9.68117Z" fill="white"/>
</svg>
