<svg width="19" height="18" viewBox="0 0 19 18" fill="none" xmlns="http://www.w3.org/2000/svg">
<path d="M4.39078 11.3906L2.29346 12.4379C2.17041 12.4994 2.08326 12.5661 2.032 12.6379C1.98071 12.7097 1.95508 12.8071 1.95508 12.9302C1.95508 13.0533 1.98071 13.1507 2.032 13.2225C2.08326 13.2943 2.17041 13.361 2.29346 13.4225L8.82521 16.6841C9.0918 16.814 9.42677 16.8722 9.83008 16.8585C10.2334 16.8722 10.5684 16.814 10.835 16.6841L17.3667 13.4225C17.4898 13.361 17.5769 13.2943 17.6282 13.2225C17.6795 13.1507 17.7051 13.0533 17.7051 12.9302C17.7051 12.8071 17.6795 12.7097 17.6282 12.6379C17.5769 12.5661 17.4898 12.4994 17.3667 12.4379L15.2694 11.3906L14.0103 12.0193L15.8344 12.9302L10.3391 15.6742C10.2842 15.7002 10.1459 15.7436 9.86819 15.7341L9.83008 15.7328L9.79197 15.7341C9.51424 15.7436 9.37593 15.7002 9.32102 15.6742L3.82574 12.9302L5.64986 12.0193L4.39078 11.3906ZM2.29346 8.51497L4.40537 7.46039L5.66445 8.08912L3.82574 9.00726L9.32102 11.7513C9.37593 11.7772 9.51424 11.8206 9.79197 11.8112L9.83008 11.8099L9.86819 11.8112C10.1459 11.8206 10.2842 11.7772 10.3391 11.7513L15.8344 9.00726L13.9957 8.08912L15.2548 7.46039L17.3667 8.51497C17.4898 8.57649 17.5769 8.64315 17.6282 8.71497C17.6795 8.78676 17.7051 8.88418 17.7051 9.00726C17.7051 9.13035 17.6795 9.2278 17.6282 9.29959C17.5769 9.37138 17.4898 9.43803 17.3667 9.49959L10.835 12.7612C10.5684 12.8911 10.2334 12.9492 9.83008 12.9356C9.42677 12.9492 9.0918 12.8911 8.82521 12.7612L2.29346 9.49959C2.17041 9.43803 2.08326 9.37138 2.03197 9.29959C1.98071 9.2278 1.95508 9.13035 1.95508 9.00726C1.95508 8.88418 1.98071 8.78676 2.03197 8.71497C2.08326 8.64315 2.17041 8.57649 2.29346 8.51497ZM8.82521 1.30129L2.29346 4.56288C2.17041 4.62444 2.08326 4.69109 2.03197 4.76288C1.98071 4.83471 1.95508 4.93213 1.95508 5.05521C1.95508 5.17829 1.98071 5.27571 2.03197 5.34753C2.08326 5.41932 2.17041 5.48598 2.29346 5.54754L8.82521 8.80912C9.0918 8.93902 9.42677 8.99714 9.83008 8.98346C10.2334 8.99714 10.5684 8.93902 10.835 8.80912L17.3667 5.54754C17.4898 5.48598 17.5769 5.41932 17.6282 5.34753C17.6795 5.27571 17.7051 5.17829 17.7051 5.05521C17.7051 4.93213 17.6795 4.83471 17.6282 4.76288C17.5769 4.69109 17.4898 4.62444 17.3667 4.56288L10.835 1.30129C10.5684 1.17139 10.2334 1.11328 9.83008 1.12695C9.42677 1.11328 9.0918 1.17139 8.82521 1.30129ZM9.83008 2.25259L9.86819 2.25129C10.1459 2.24186 10.2842 2.28525 10.3391 2.31119L15.8344 5.05521L10.3391 7.79922C10.2842 7.82517 10.1459 7.86855 9.86819 7.85913L9.83008 7.85783L9.79197 7.85913C9.51424 7.86855 9.37593 7.82517 9.32102 7.79922L3.82574 5.05521L9.32102 2.31119C9.37593 2.28525 9.51427 2.24186 9.79197 2.25129L9.83008 2.25259Z" fill="white"/>
</svg>
