<svg width="19" height="18" viewBox="0 0 19 18" fill="none" xmlns="http://www.w3.org/2000/svg">
<path d="M12.4795 1.5C12.4795 1.81066 12.7313 2.0625 13.042 2.0625H15.6918L10.1123 7.64201V6C10.1123 5.68934 9.86046 5.4375 9.5498 5.4375C9.23914 5.4375 8.9873 5.68934 8.9873 6V9C8.9873 9.31066 9.23914 9.5625 9.5498 9.5625H12.5498C12.8605 9.5625 13.1123 9.31066 13.1123 9C13.1123 8.68934 12.8605 8.4375 12.5498 8.4375H10.9078L16.4873 2.85799V5.50781C16.4873 5.81847 16.7391 6.07031 17.0498 6.07031C17.3605 6.07031 17.6123 5.81847 17.6123 5.50781V1.5C17.6123 1.18934 17.3605 0.9375 17.0498 0.9375H13.042C12.7313 0.9375 12.4795 1.18934 12.4795 1.5Z" fill="white"/>
<path d="M15.3635 5.57276C15.3976 6.47227 16.1357 7.19152 17.0426 7.1953C17.0498 7.73987 17.0498 8.33904 17.0498 9C17.0498 12.5355 17.0498 14.3033 15.9515 15.4017C14.8531 16.5 13.0853 16.5 9.5498 16.5C6.01427 16.5 4.2465 16.5 3.14815 15.4017C2.0498 14.3033 2.0498 12.5355 2.0498 9C2.0498 5.46447 2.0498 3.6967 3.14815 2.59835C4.2465 1.5 6.01427 1.5 9.5498 1.5C10.2108 1.5 10.8099 1.5 11.3545 1.50718C11.3583 2.41413 12.0775 3.15223 12.977 3.18627L11.0099 5.15342C10.7177 4.65058 10.1732 4.3125 9.5498 4.3125C8.61782 4.3125 7.8623 5.06802 7.8623 6V9C7.8623 9.93198 8.61782 10.6875 9.5498 10.6875H12.5498C13.4818 10.6875 14.2373 9.93198 14.2373 9C14.2373 8.37656 13.8992 7.83208 13.3964 7.5399L15.3635 5.57276Z" fill="white"/>
</svg>
