<svg width="29" height="26" viewBox="0 0 29 26" fill="none" xmlns="http://www.w3.org/2000/svg">
  <path fill-rule="evenodd" clip-rule="evenodd" d="M24.4805 12.0205V17.43C24.4805 20.7846 24.4805 22.4619 23.6852 23.1948C23.3059 23.5443 22.8271 23.7639 22.3171 23.8223C21.2478 23.9447 19.999 22.8402 17.5015 20.6311C16.3975 19.6547 15.8455 19.1664 15.2068 19.0378C14.8924 18.9744 14.5686 18.9744 14.2541 19.0378C13.6155 19.1664 13.0635 19.6547 11.9595 20.6311C9.46191 22.8402 8.21316 23.9447 7.14379 23.8223C6.6338 23.7639 6.15503 23.5443 5.77575 23.1948C4.98047 22.4619 4.98047 20.7846 4.98047 17.43V12.0205C4.98047 7.37447 4.98047 5.05144 6.40832 3.60812C7.83618 2.16479 10.1343 2.16479 14.7305 2.16479C19.3267 2.16479 21.6248 2.16479 23.0526 3.60812C24.4805 5.05144 24.4805 7.37447 24.4805 12.0205ZM10.668 6.49813C10.668 6.0494 11.0318 5.68563 11.4805 5.68563H17.9805C18.4292 5.68563 18.793 6.0494 18.793 6.49813C18.793 6.94684 18.4292 7.31063 17.9805 7.31063H11.4805C11.0318 7.31063 10.668 6.94684 10.668 6.49813Z" fill="#F1F1F1" />
</svg>