<svg xmlns="http://www.w3.org/2000/svg" width="49" height="48" viewBox="0 0 49 48" fill="none">
<path d="M40.1895 39.9998C40.1895 40.5303 39.9788 41.039 39.6037 41.4141C39.2286 41.7891 38.7199 41.9998 38.1895 41.9998H10.1895C9.65902 41.9998 9.15031 41.7891 8.77524 41.4141C8.40016 41.039 8.18945 40.5303 8.18945 39.9998V21.9998H2.18945L22.8435 3.22385C23.2117 2.88881 23.6917 2.70312 24.1895 2.70312C24.6873 2.70313 25.1673 2.88881 25.5355 3.22385L46.1895 21.9998H40.1895V39.9998ZM24.1895 33.9998L30.9075 27.2818C31.3254 26.864 31.6568 26.3679 31.883 25.8219C32.1091 25.276 32.2255 24.6908 32.2255 24.0998C32.2255 23.5089 32.1091 22.9237 31.883 22.3778C31.6568 21.8318 31.3254 21.3357 30.9075 20.9178C30.4896 20.5 29.9936 20.1685 29.4476 19.9424C28.9016 19.7162 28.3165 19.5998 27.7255 19.5998C27.1345 19.5998 26.5494 19.7162 26.0034 19.9424C25.4574 20.1685 24.9614 20.5 24.5435 20.9178L24.1895 21.2718L23.8355 20.9178C23.4176 20.5 22.9216 20.1685 22.3756 19.9424C21.8296 19.7162 21.2445 19.5998 20.6535 19.5998C20.0625 19.5998 19.4774 19.7162 18.9314 19.9424C18.3854 20.1685 17.8894 20.5 17.4715 20.9178C17.0536 21.3357 16.7222 21.8318 16.496 22.3778C16.2699 22.9237 16.1535 23.5089 16.1535 24.0998C16.1535 24.6908 16.2699 25.276 16.496 25.8219C16.7222 26.3679 17.0536 26.864 17.4715 27.2818L24.1895 33.9998Z" fill="#DBA77B"/>
</svg>