<svg xmlns="http://www.w3.org/2000/svg" width="49" height="48" viewBox="0 0 49 48" fill="none">
<path d="M18.3906 26V32H30.3906V26H44.3906V40C44.3906 40.5304 44.1799 41.0391 43.8048 41.4142C43.4297 41.7893 42.921 42 42.3906 42H6.39062C5.86019 42 5.35149 41.7893 4.97642 41.4142C4.60134 41.0391 4.39062 40.5304 4.39062 40V26H18.3906ZM22.3906 22H26.3906V28H22.3906V22ZM14.3906 10V4C14.3906 3.46957 14.6013 2.96086 14.9764 2.58579C15.3515 2.21071 15.8602 2 16.3906 2H32.3906C32.921 2 33.4297 2.21071 33.8048 2.58579C34.1799 2.96086 34.3906 3.46957 34.3906 4V10H42.3906C42.921 10 43.4297 10.2107 43.8048 10.5858C44.1799 10.9609 44.3906 11.4696 44.3906 12V22H30.3906V18H18.3906V22H4.39062V12C4.39062 11.4696 4.60134 10.9609 4.97642 10.5858C5.35149 10.2107 5.86019 10 6.39062 10H14.3906ZM18.3906 6V10H30.3906V6H18.3906Z" fill="#DBA77B"/>
</svg>