<svg xmlns="http://www.w3.org/2000/svg" width="49" height="48" viewBox="0 0 49 48" fill="none">
<path d="M42.8008 15.9998C43.8617 15.9998 44.8791 16.4212 45.6292 17.1714C46.3794 17.9215 46.8008 18.9389 46.8008 19.9998V27.9998C46.8008 29.0607 46.3794 30.0781 45.6292 30.8282C44.8791 31.5784 43.8617 31.9998 42.8008 31.9998H40.6768C40.1892 35.8664 38.3073 39.4222 35.3843 41.9998C32.4613 44.5774 28.698 45.9997 24.8008 45.9998V41.9998C27.9834 41.9998 31.0356 40.7355 33.2861 38.4851C35.5365 36.2346 36.8008 33.1824 36.8008 29.9998V17.9998C36.8008 14.8172 35.5365 11.765 33.2861 9.51452C31.0356 7.26408 27.9834 5.9998 24.8008 5.9998C21.6182 5.9998 18.566 7.26408 16.3155 9.51452C14.0651 11.765 12.8008 14.8172 12.8008 17.9998V31.9998H6.80078C5.73991 31.9998 4.7225 31.5784 3.97235 30.8282C3.22221 30.0781 2.80078 29.0607 2.80078 27.9998V19.9998C2.80078 18.9389 3.22221 17.9215 3.97235 17.1714C4.7225 16.4212 5.73991 15.9998 6.80078 15.9998H8.92478C9.41284 12.1336 11.295 8.57835 14.2179 6.00115C17.1409 3.42396 20.9039 2.00195 24.8008 2.00195C28.6977 2.00195 32.4607 3.42396 35.3837 6.00115C38.3066 8.57835 40.1887 12.1336 40.6768 15.9998H42.8008ZM16.3208 31.5698L18.4408 28.1778C20.347 29.3719 22.5515 30.0034 24.8008 29.9998C27.0501 30.0034 29.2546 29.3719 31.1608 28.1778L33.2808 31.5698C30.7393 33.1621 27.7999 34.0044 24.8008 33.9998C21.8017 34.0044 18.8623 33.1621 16.3208 31.5698Z" fill="#DBA77B"/>
</svg>