<svg xmlns="http://www.w3.org/2000/svg" width="49" height="48" viewBox="0 0 49 48" fill="none">
<path d="M13.3006 38L4.39062 45V8C4.39062 7.46957 4.60134 6.96086 4.97642 6.58579C5.35149 6.21071 5.86019 6 6.39062 6H42.3906C42.921 6 43.4297 6.21071 43.8048 6.58579C44.1799 6.96086 44.3906 7.46957 44.3906 8V36C44.3906 36.5304 44.1799 37.0391 43.8048 37.4142C43.4297 37.7893 42.921 38 42.3906 38H13.3006ZM14.3906 20V24H18.3906V20H14.3906ZM22.3906 20V24H26.3906V20H22.3906ZM30.3906 20V24H34.3906V20H30.3906Z" fill="#DBA77B"/>
</svg>