<svg xmlns="http://www.w3.org/2000/svg" width="49" height="48" viewBox="0 0 49 48" fill="none">
<path d="M18.5898 26V32H30.5898V26H44.5898V40C44.5898 40.5304 44.3791 41.0391 44.004 41.4142C43.6289 41.7893 43.1202 42 42.5898 42H6.58984C6.05941 42 5.5507 41.7893 5.17563 41.4142C4.80055 41.0391 4.58984 40.5304 4.58984 40V26H18.5898ZM22.5898 22H26.5898V28H22.5898V22ZM14.5898 10V4C14.5898 3.46957 14.8005 2.96086 15.1756 2.58579C15.5507 2.21071 16.0594 2 16.5898 2H32.5898C33.1202 2 33.6289 2.21071 34.004 2.58579C34.3791 2.96086 34.5898 3.46957 34.5898 4V10H42.5898C43.1202 10 43.6289 10.2107 44.004 10.5858C44.3791 10.9609 44.5898 11.4696 44.5898 12V22H30.5898V18H18.5898V22H4.58984V12C4.58984 11.4696 4.80055 10.9609 5.17563 10.5858C5.5507 10.2107 6.05941 10 6.58984 10H14.5898ZM18.5898 6V10H30.5898V6H18.5898Z" fill="#DBA77B"/>
</svg>