<svg xmlns="http://www.w3.org/2000/svg" width="49" height="48" viewBox="0 0 49 48" fill="none">
<path d="M24.1895 28V44H8.18945C8.18945 39.7565 9.87516 35.6869 12.8758 32.6863C15.8764 29.6857 19.946 28 24.1895 28ZM36.1895 43L30.3115 46.09L31.4335 39.546L26.6795 34.91L33.2515 33.954L36.1895 28L39.1295 33.954L45.6995 34.91L40.9455 39.546L42.0655 46.09L36.1895 43ZM24.1895 26C17.5595 26 12.1895 20.63 12.1895 14C12.1895 7.37 17.5595 2 24.1895 2C30.8195 2 36.1895 7.37 36.1895 14C36.1895 20.63 30.8195 26 24.1895 26Z" fill="#DBA77B"/>
</svg>