<svg xmlns="http://www.w3.org/2000/svg" width="19" height="19" viewBox="0 0 19 19" fill="none">
<mask id="mask0_1704_12730" style="mask-type:luminance" maskUnits="userSpaceOnUse" x="0" y="0" width="19" height="19">
<path d="M19 0H0V19H19V0Z" fill="white"/>
</mask>
<g mask="url(#mask0_1704_12730)">
<path d="M17.1349 6.83239H14.1752C13.5175 6.83239 13.006 7.34393 13.006 8.00162V8.03816V8.73239H10.2656V2.95932C10.2656 2.77662 10.0829 2.59393 9.90024 2.59393H6.0637V1.8997C6.0637 1.24201 5.55216 0.730469 4.89447 0.730469H1.93486C1.3137 0.730469 0.765625 1.24201 0.765625 1.8997V4.85931C0.765625 5.51701 1.27716 6.02855 1.93486 6.02855H4.89447C5.55216 6.02855 6.0637 5.51701 6.0637 4.85931V4.16508H8.76755V8.73239H6.0637V8.03816C6.0637 7.38047 5.55216 6.86893 4.89447 6.86893H1.93486C1.27716 6.86893 0.765625 7.38047 0.765625 8.03816V10.9612C0.765625 11.6189 1.27716 12.1305 1.93486 12.1305H4.89447C5.55216 12.1305 6.0637 11.6189 6.0637 10.9612V10.267H8.76755V14.8343H6.0637V14.1766C6.0637 13.5189 5.55216 13.0074 4.89447 13.0074H1.93486C1.27716 13.0074 0.765625 13.5189 0.765625 14.1766V17.1362C0.765625 17.7939 1.27716 18.3055 1.93486 18.3055H4.89447C5.55216 18.3055 6.0637 17.7939 6.0637 17.1362V16.442H9.93678C10.156 16.442 10.3022 16.2228 10.3022 16.0766V10.3035H13.0425V10.9612C13.0425 11.6189 13.5541 12.1305 14.2118 12.1305H17.1714C17.8291 12.1305 18.3406 11.6189 18.3406 10.9612V10.9247V8.03816V8.00162C18.3041 7.34393 17.7925 6.83239 17.1349 6.83239ZM4.56562 4.53047H2.2637V2.19201H4.56562V4.53047ZM4.56562 8.33047V10.6324H2.2637V8.33047H4.56562ZM4.56562 16.8074H2.2637V14.5055H4.56562V16.8074ZM16.8425 8.33047V10.6324H14.5406V8.33047H16.8425Z" fill="#DBA77B"/>
</g>
</svg>