<svg xmlns="http://www.w3.org/2000/svg" width="21" height="21" viewBox="0 0 21 21" fill="none">
<path d="M4.16667 6.27778H2.05556M4.16667 14.7222H2.05556M4.16667 10.5H1M5.22222 2.59975C6.73177 1.58929 8.54712 1 10.5 1C15.7467 1 20 5.2533 20 10.5C20 15.7467 15.7467 20 10.5 20C8.54712 20 6.73177 19.4107 5.22222 18.4003M12.6111 7.86102C12.0833 7.73011 11.2232 7.72529 10.5 7.73011M10.5 7.73011C10.2582 7.73172 10.4044 7.72144 10.0778 7.73011C9.22552 7.7567 8.39058 8.11092 8.38889 9.11448C8.38704 10.1835 9.44444 10.4999 10.5 10.4999C11.5556 10.4999 12.6111 10.7439 12.6111 11.8853C12.6111 12.7431 11.7588 13.1189 10.6964 13.2434C10.6284 13.2434 10.563 13.2435 10.5 13.2438M10.5 7.73011V6.27778M10.5 13.2438C9.78201 13.2468 9.35926 13.2601 8.38889 13.1388M10.5 13.2438V14.7222" stroke="#DBA77B" stroke-width="2" stroke-linecap="round" stroke-linejoin="round"/>
</svg>