<svg xmlns="http://www.w3.org/2000/svg" width="21" height="20" viewBox="0 0 21 20" fill="none">
<path d="M7.33333 11C7.33333 13.2091 9.22373 15 11.5556 15C12.7215 15 13.7771 14.5523 14.5411 13.8284M7.33333 11H3.11111M7.33333 11C7.33333 9.448 8.26632 8.1025 9.62991 7.43928M14.5411 13.8284C15.3052 13.1046 15.7778 12.1046 15.7778 11C15.7778 9.8954 15.3052 8.8954 14.5411 8.1716M14.5411 13.8284L18.1981 17.2929M3.11111 11C3.11111 11.5523 2.63852 12 2.05556 12C1.47259 12 1 11.5523 1 11C1 10.4477 1.47259 10 2.05556 10C2.63852 10 3.11111 10.4477 3.11111 11ZM9.62991 7.43928L7.72546 2.92872M9.62991 7.43928C10.2073 7.15847 10.8618 7 11.5556 7C12.7215 7 13.7771 7.44772 14.5411 8.1716M14.5411 8.1716L18.1981 4.70711M18.1981 17.2929C18.007 17.4739 17.8889 17.7239 17.8889 18C17.8889 18.5523 18.3615 19 18.9444 19C19.5274 19 20 18.5523 20 18C20 17.4477 19.5274 17 18.9444 17C18.653 17 18.3891 17.1119 18.1981 17.2929ZM7.72546 2.92872C8.11426 2.78126 8.38889 2.42101 8.38889 2C8.38889 1.44772 7.9163 1 7.33333 1C6.75037 1 6.27778 1.44772 6.27778 2C6.27778 2.55228 6.75037 3 7.33333 3C7.4719 3 7.60423 2.97471 7.72546 2.92872ZM18.1981 4.70711C18.007 4.52614 17.8889 4.27614 17.8889 4C17.8889 3.44772 18.3615 3 18.9444 3C19.5274 3 20 3.44772 20 4C20 4.55228 19.5274 5 18.9444 5C18.653 5 18.3891 4.88807 18.1981 4.70711Z" stroke="#DBA77B" stroke-width="2" stroke-linecap="round" stroke-linejoin="round"/>
</svg>